<svg height='300px' width='300px'  fill="white" xmlns="http://www.w3.org/2000/svg" xmlns:xlink="http://www.w3.org/1999/xlink" version="1.1" x="0px" y="0px" viewBox="0 0 100 100" enable-background="new 0 0 100 100" xml:space="preserve"><path d="M55.5,58.241l-7.058,7.944L68.07,90.196c2.445,2.993,6.303,3.663,10.143-0.173c3.487-3.489,2.141-6.896-0.464-9.503  L55.5,58.241z"></path><path d="M43.897,46.625L8.905,11.584c-1.415-1.419-2.211-0.788-2.8,0.319C0.659,22.165,16.353,43.679,30.874,58.198L43.897,46.625z"></path><path d="M94.279,21.676c-0.996-0.998-2.282-0.997-3.277-0.002L75.866,36.812c-1.051,1.051-2.408,1.051-3.458,0l-0.079-0.08  c-1.05-1.052-1.05-2.407,0-3.459l15.136-15.135c0.995-0.995,0.995-2.281,0-3.277c-0.995-0.996-2.282-0.996-3.276,0L69.052,29.997  c-1.052,1.051-2.408,1.051-3.459,0l-0.079-0.079c-1.051-1.051-1.051-2.408,0-3.458L80.65,11.323c0.996-0.994,0.997-2.28,0-3.277  c-0.993-0.994-2.135-0.926-3.275,0.001L57.726,24.554c-5.71,4.797-7.607,11.303-3.007,17.382l-42.49,37.752  c-3.532,3.138-3.369,6.869,0.084,10.323c3.454,3.453,7.186,3.614,10.324,0.086l37.753-42.49c6.079,4.6,12.584,2.703,17.38-3.007  L94.278,24.95C95.206,23.81,95.273,22.669,94.279,21.676z"></path></svg>