<svg height='300px' width='300px'  fill="white" xmlns="http://www.w3.org/2000/svg" xmlns:xlink="http://www.w3.org/1999/xlink" version="1.1" x="0px" y="0px" viewBox="0 0 100 100" enable-background="new 0 0 100 100" xml:space="preserve"><path d="M94.327,23.756c-0.931-0.931-2.134-0.929-3.063,0L77.775,37.245c-0.981,0.983-2.25,0.983-3.232,0.001l-0.07-0.075  c-0.984-0.98-0.984-2.247,0-3.23L87.958,20.45c0.933-0.928,0.933-2.13,0.001-3.061c-0.932-0.931-2.133-0.93-3.063-0.001  l-13.489,13.49c-0.982,0.98-2.25,0.98-3.232,0l-0.073-0.075c-0.982-0.982-0.982-2.249,0-3.232l13.49-13.488  c0.93-0.929,0.932-2.131-0.001-3.063c-0.93-0.929-1.995-0.866-3.062,0.001L62.229,24.386c-5.082,4.268-6.979,9.939-3.437,15.376  c0.3,0.459,0.321,1.036-0.17,1.474L18.156,77.241c-3.373,2.999-3.218,6.567,0.083,9.866c3.301,3.3,6.868,3.457,9.868,0.082  l36.008-40.472c0.437-0.493,1.013-0.471,1.474-0.172c5.437,3.543,11.104,1.654,15.373-3.428l13.364-16.301  C95.191,25.751,95.257,24.686,94.327,23.756z"></path><path d="M33.693,46.988c0.503-0.221,1.116-0.183,1.554,0.308L40.316,53l6.523-5.805l-6.084-5.407  c-0.492-0.437-0.53-1.052-0.309-1.554c2.397-5.44,1.765-13.707-5.816-21.288c-8.009-8.009-19.702-9.948-25.937-3.712  c-6.235,6.236-4.298,17.928,3.712,25.938C19.987,48.751,28.253,49.385,33.693,46.988z"></path><path d="M80.646,77.234L58.777,57.801l-7.103,7.982l19.021,21.404c3,3.375,6.568,3.222,9.871-0.082  C83.869,83.805,84.023,80.234,80.646,77.234z"></path></svg>