<svg height='300px' width='300px'  fill="white" xmlns="http://www.w3.org/2000/svg" xmlns:xlink="http://www.w3.org/1999/xlink" version="1.1" x="0px" y="0px" viewBox="0 0 100 100" enable-background="new 0 0 100 100" xml:space="preserve"><path d="M66.778,54.595C84.509,36.866,99.563,18.292,93.72,7.283c-0.632-1.188-1.486-1.864-3.004-0.344L54.247,43.456L66.778,54.595  z"></path><path d="M41.93,55.789l-25.08,25.113c-2.794,2.796-4.24,6.453-0.499,10.194c4.12,4.116,8.26,3.396,10.884,0.189l22.151-27.103  L41.93,55.789z"></path><path d="M41.932,37.738c3.052-5.715,2.359-15.424-5.694-23.477c-8.052-8.051-20.85-10.527-27.45-3.927  c-6.598,6.599-4.124,19.398,3.928,27.45c8.053,8.054,17.764,8.746,23.476,5.695l42.252,47.693c3.371,3.794,7.381,3.618,11.091-0.092  c3.713-3.713,3.887-7.721,0.094-11.092L41.932,37.738z"></path></svg>