<?xml version="1.0" encoding="UTF-8"?>
<svg width="700pt" height="700pt" version="1.1" viewBox="0 0 700 700" xmlns="http://www.w3.org/2000/svg">
 <path d="m313.59 354.57c-0.56641-19.234 2.7852-38.387 9.8555-56.285 5.0391-12.676 13.52-23.691 24.488-31.801 9.7539-6.5703 20.352-13.145 31.801-19.715l31.801-17.488v-0.003906c11.008-5.9492 19.895-15.172 25.438-26.395 6.543-13.668 9.6016-28.742 8.9062-43.883 0.98438-24.246-9.0742-47.633-27.352-63.602-18.859-16.535-43.297-25.289-68.367-24.484-25.969-0.91797-51.125 9.1211-69.324 27.668-17.871 18.23-27.125 43.215-25.441 68.688h-72.82c-2.9336-44.383 13.676-87.828 45.473-118.93 15.973-15.969 35.051-28.496 56.051-36.809 21.004-8.3164 43.484-12.238 66.062-11.527 43.984-1.0625 86.613 15.277 118.61 45.473 31.934 28.984 49.688 70.418 48.652 113.53 0.79297 23.305-3.7773 46.477-13.355 67.734-7.0078 16.027-17.945 30.027-31.801 40.703-12.129 8.4023-24.77 16.051-37.84 22.898-11.805 6.2031-22.539 14.254-31.801 23.848-8.9688 9.3945-13.785 22-13.355 34.98v46.746h-75.684zm4.4531 190.8h-0.003907c-9.3945-9.2773-14.703-21.922-14.75-35.129-0.042968-13.207 5.1797-25.887 14.516-35.23 9.3359-9.3438 22.008-14.578 35.215-14.547 16.531 0.042968 31.953 8.3125 41.133 22.059 9.1797 13.746 10.91 31.164 4.6133 46.445-6.2969 15.285-19.793 26.43-35.992 29.719-16.195 3.293-32.973-1.6992-44.734-13.316z"/>
</svg>
