<?xml version="1.0" encoding="UTF-8"?>
<svg width="700pt" height="700pt" fill="white" version="1.1" viewBox="0 0 700 700" xmlns="http://www.w3.org/2000/svg">
   <!--<rect width="100%" height="100%" fill="red"/>-->
   <g transform="scale(1.45) translate(-110, -40)">
      <path d="m444.56 69.441c-71.004 0-130.23 52.004-141.58 119.87l-146.75 0.027344c-24.238 0-44.238 19.867-44.238 44.102v153.36c0 24.234 20.004 44.238 44.238 44.238h21.602v27.371c-0.019532 13.746 8.7812 25.207 19.824 29.777 11.039 4.5703 25.453 2.707 35.16-7.0273l50.199-50.117h109.23c24.238 0 44.238-20.004 44.238-44.238v-30.625c2.668 0.14844 5.3633 0.25 8.0664 0.25 79.066 0 143.44-64.367 143.44-143.44 0-79.066-64.367-143.55-143.44-143.55zm0 28.027c63.938 0 115.44 51.586 115.44 115.52 0 63.938-51.5 115.44-115.44 115.44-6.2266 0-12.336-0.50781-18.293-1.4492-0.91016-0.25-1.8438-0.40625-2.7891-0.46484-53.824-9.8555-94.469-56.793-94.469-113.52 0-2.4883 0.089843-4.9609 0.25-7.4102v-0.003906c0.12109-0.75781 0.17578-1.5273 0.16406-2.293 4.9062-59.375 54.469-105.81 115.14-105.81zm-1.832 31.527c-23.977 0.52734-45.441 17.41-51.594 41.613v-0.003906c-1.8633 7.4727 2.6562 15.047 10.117 16.953 3.6016 0.92969 7.4297 0.38281 10.629-1.5156 3.2031-1.8984 5.5156-4.9922 6.4336-8.6016 3.6016-14.164 16.504-22.539 29.969-20.152 13.461 2.3867 23.117 15.047 21.902 29.668-1.2148 14.621-12.719 25.211-26.359 25.211h-0.003906c-0.56641 0-1.1328 0.039062-1.6953 0.10938-0.19922 0.03125-0.40234 0.070312-0.60156 0.10938-0.51562 0.082031-1.0273 0.19141-1.5312 0.32812h-0.027344c-0.09375 0.039062-0.18359 0.074218-0.27344 0.11328-1.1445 0.35938-2.2383 0.86328-3.2539 1.5039-0.054687 0.027344-0.10938 0.054688-0.16406 0.085938-0.45703 0.30078-0.89453 0.62891-1.3125 0.98438-0.17578 0.14062-0.35156 0.28516-0.51953 0.4375-0.007812 0.007812-0.019531 0.019531-0.027343 0.027344-0.82812 0.76562-1.5664 1.6289-2.1875 2.5703-0.085938 0.11719-0.16797 0.23438-0.25 0.35547-0.31641 0.50781-0.59766 1.0391-0.84766 1.5859v0.027344c-0.007812 0.015625-0.015624 0.035156-0.027343 0.050781-0.23047 0.52734-0.43359 1.0625-0.60156 1.6133-0.035156 0.10156-0.074218 0.20313-0.10938 0.30078v0.027344c-0.15625 0.56641-0.27344 1.1445-0.35547 1.7227-0.007812 0.085937-0.019531 0.16797-0.027343 0.25-0.085938 0.61719-0.13281 1.2383-0.13672 1.8594v25.102c0.015625 7.6992 6.2461 13.941 13.945 13.973 3.7148 0.011718 7.2852-1.4531 9.9219-4.0742 2.6367-2.6211 4.125-6.1836 4.1289-9.8984v-13.043c21.734-5.9805 38.262-25.465 40.219-49.051 2.3633-28.453-17.059-54.461-44.977-59.414-3.4883-0.61719-6.9648-0.89453-10.391-0.82031zm-286.49 88.344h144.86c1.9414 64.711 47.035 118.84 107.4 134.52v34.941c0 9.2109-7.0195 16.242-16.242 16.242h-115.11l0.003907-0.003906c-3.6758 0-7.1992 1.4414-9.8164 4.0195l-54.355 54.355c-1.7305 1.7344-2.9258 1.5977-4.5391 0.92969-1.6133-0.66797-2.6016-1.3828-2.5977-3.8281v-0.027343-0.027344-0.027344-0.027344-41.422c-0.03125-7.6914-6.2578-13.914-13.945-13.945h-35.652c-9.2227 0-16.242-7.0312-16.242-16.242v-153.36c0-9.2109 7.0195-16.105 16.242-16.105zm287.23 55.258c-9.2734 0.24219-17.035 8.1484-17.035 17.473 0 9.4688 7.9727 17.363 17.445 17.363 9.4688 0 17.391-7.8906 17.391-17.363 0-9.4688-7.918-17.473-17.391-17.473-0.14844 0-0.26953-0.003906-0.41406 0z" fill-rule="evenodd"/>
   </g>
</svg>
