<svg width="300px" height="300px" fill="white" xmlns="http://www.w3.org/2000/svg" viewBox="0 0 100 100" x="0px" y="0px">
   <style>
      #gScale
      {
         transform: translate(-48px, -30px) scale(1.6);
      }
   </style>
   <!--
   <rect fill="black" width="300px" height="300px"/>
   -->
   <g id="gScale">
      <path 
         d=
            "
            M80,52.5
            H40
            a2.5,2.5,0,0,1,0-5
            H80
            a2.5,2.5,0,0,1,0,5
            Z
            "
         ></path>
      <path d="M60,72.5a2.5,2.5,0,0,1-1.7676-4.2678l20-20a2.5,2.5,0,1,1,3.5352,3.5357l-20,20A2.4921,2.4921,0,0,1,60,72.5Z"></path>
      <path d="M80,52.5a2.4921,2.4921,0,0,1-1.7676-.7321l-20-20a2.5,2.5,0,1,1,3.5352-3.5357l20,20A2.5,2.5,0,0,1,80,52.5Z"></path>
   </g>
</svg>