<svg height='300px' width='300px'  fill="white" xmlns:dc="http://purl.org/dc/elements/1.1/" xmlns:cc="http://creativecommons.org/ns#" xmlns:rdf="http://www.w3.org/1999/02/22-rdf-syntax-ns#" xmlns:svg="http://www.w3.org/2000/svg" xmlns="http://www.w3.org/2000/svg" xmlns:sodipodi="http://sodipodi.sourceforge.net/DTD/sodipodi-0.dtd" xmlns:inkscape="http://www.inkscape.org/namespaces/inkscape" version="1.1" x="0px" y="0px" viewBox="0 0 100 100"><g transform="translate(0,-952.36218)"><path d="m 48.750001,957.45926 39,16.01043 c 0.73001,0.29553 1.24589,1.05695 1.25,1.84495 l 0,42.02736 c -0.57788,5.0445 -5.21705,8.8168 -9.5,9.944 -0.42197,0.1096 -0.87971,0.076 -1.28125,-0.094 l -3.21875,-1.3446 0,1.501 c -0.57788,5.0444 -5.21705,8.8168 -9.5,9.9439 -0.42197,0.1096 -0.87971,0.076 -1.28125,-0.094 l -3.21875,-1.3446 0,1.501 c -0.57788,5.0445 -5.21705,8.8168 -9.5,9.944 -0.42197,0.1096 -0.8797,0.076 -1.28125,-0.094 l -38,-16.0098 c -0.71853,-0.3052 -1.21978,-1.064 -1.21875,-1.8451 l 0,-46.02999 c 0.001,-1.36096 1.69371,-2.39889 2.90625,-1.78241 l 2.21875,1.09446 2.09375,-4.19022 c 0.78263,-1.01482 1.4656,-1.19154 2.53125,-0.96939 l 4.25,1.75115 0,-5.9101 c 10e-4,-1.36097 1.69371,-2.3989 2.90625,-1.78241 l 2.21875,1.09446 2.09375,-4.19023 c 0.80481,-1.05136 1.46342,-1.20728 2.53125,-0.96938 l 4.25,1.75115 0,-5.9101 c 0.001,-1.36097 1.69371,-2.3989 2.90625,-1.78241 l 2.21875,1.09446 2.09375,-4.19023 c 0.80481,-1.05136 1.46342,-1.20729 2.53125,-0.96938 z m 0.21875,4.37786 -1.25,2.50162 c 10.73347,4.92135 32.40603,14.28258 32.4375,14.35309 1.34487,-0.73333 2.66102,-1.62103 3.59375,-2.5329 z m -5.96875,4.69054 0,4.31531 30.75,12.63323 c 0.73001,0.29553 1.24589,1.05695 1.25,1.84495 l 0,36.17985 2,0.8443 0,-40.71406 c -11.13577,-5.40552 -34.00877,-15.13919 -34,-15.10358 z m -8.03125,5.31597 -1.25,2.50162 c 10.73347,4.92135 32.46853,14.40767 32.4375,14.35309 1.34487,-0.73333 2.66102,-1.62102 3.59375,-2.5329 z m -5.96875,4.69054 0,4.31532 30.75,12.63322 c 0.73001,0.29555 1.24589,1.05695 1.25,1.84495 l 0,36.17984 2,0.8443 0,-40.71405 c -11.13577,-5.40552 -34.00877,-15.13919 -34,-15.10358 z m -8.03125,5.31597 -1.25,2.50163 c 10.73347,4.92134 32.40603,14.37634 32.4375,14.35304 1.28522,-0.6371 2.52271,-1.4719 3.59375,-2.5329 z m -5.96875,4.69054 0,41.46452 34,14.3531 0,-40.7141 c -11.07424,-5.30379 -34.00573,-15.12191 -34,-15.10352 z" style="text-indent:0;text-transform:none;direction:ltr;block-progression:tb;baseline-shift:baseline;color:white;enable-background:accumulate;" fill="white" fill-opacity="1" stroke="none" marker="none" visibility="visible" display="inline" overflow="visible"></path></g></svg>