<svg 
   xxxheight="300px" 
   width="300px" 
   fill="white" 
   xmlns="http://www.w3.org/2000/svg" 
   viewBox="0 0 96 96" 
   x="0px" 
   y="0px"
>
   <path fill="hsl(0, 67.2%, 49%)" 
      d="
         M76.1,80
         a2,2,0,0,1-1.45-.63
         C67.24,71.5,59.31,63.84,51.07,56.61
         L50.34,56
         a3.55,3.55,0,0,0-4.68,0
         l-1.42,1.25
         c-8,7-15.69,14.49-22.89,22.13
         a2,2,0,0,1-3.06-.18,7.44,7.44,0,0,1-1.45-4
         l-.06-1
         a395.22,395.22,0,0,1-.23-45.68
         h0
         c.07-1.24.15-2.48.23-3.72
         l.06-1
         a7.6,7.6,0,0,1,7-7.06,349.65,349.65,0,0,1,46.35-.1
         l1.9.12
         a7.6,7.6,0,0,1,7,7
         l.06,1
         c.08,1.24.16,2.48.23,3.72
         a395.41,395.41,0,0,1-.23,45.69
         l-.06,1
         a7.44,7.44,0,0,1-1.45,4,2,2,0,0,1-1.49.81
         Z
      "
   ></path>

</svg>