<svg 
   xxxheight="300px" 
   width="300px" 
   fill="white" 
   xmlns="http://www.w3.org/2000/svg" 
   viewBox="0 0 96 96" 
   x="0px" 
   y="0px"
>
   <path fill="hsl(0, 67.2%, 49%)" 
      d="
         M76.1,80
         a2,2,0,0,1-1.45-.63
         C67.24,71.5,59.31,63.84,51.07,56.61
         L50.34,56
         a3.55,3.55,0,0,0-4.68,0
         l-1.42,1.25
         c-8,7-15.69,14.49-22.89,22.13
         a2,2,0,0,1-3.06-.18,7.44,7.44,0,0,1-1.45-4
         l-.06-1
         a395.22,395.22,0,0,1-.23-45.68
         h0
         c.07-1.24.15-2.48.23-3.72
         l.06-1
         a7.6,7.6,0,0,1,7-7.06,349.65,349.65,0,0,1,46.35-.1
         l1.9.12
         a7.6,7.6,0,0,1,7,7
         l.06,1
         c.08,1.24.16,2.48.23,3.72
         a395.41,395.41,0,0,1-.23,45.69
         l-.06,1
         a7.44,7.44,0,0,1-1.45,4,2,2,0,0,1-1.49.81
         Z
      "
   ></path>

<path d="M76.1,80a2,2,0,0,1-1.45-.63C67.24,71.5,59.31,63.84,51.07,56.61L50.34,56a3.55,3.55,0,0,0-4.68,0l-1.42,1.25c-8,7-15.69,14.49-22.89,22.13a2,2,0,0,1-3.06-.18,7.44,7.44,0,0,1-1.45-4l-.06-1a395.22,395.22,0,0,1-.23-45.68h0c.07-1.24.15-2.48.23-3.72l.06-1a7.6,7.6,0,0,1,7-7.06,349.65,349.65,0,0,1,46.35-.1l1.9.12a7.6,7.6,0,0,1,7,7l.06,1c.08,1.24.16,2.48.23,3.72a395.41,395.41,0,0,1-.23,45.69l-.06,1a7.44,7.44,0,0,1-1.45,4,2,2,0,0,1-1.49.81ZM48,51.1A7.51,7.51,0,0,1,53,53l.73.64c7.47,6.55,14.69,13.45,21.51,20.55V74a391.42,391.42,0,0,0,.23-45.2c-.07-1.23-.15-2.46-.23-3.69l-.06-1a3.58,3.58,0,0,0-3.31-3.31L70,20.71a346.92,346.92,0,0,0-45.83.1,3.58,3.58,0,0,0-3.3,3.32l-.06,1c-.08,1.24-.16,2.47-.23,3.7A391.24,391.24,0,0,0,20.77,74v.17c6.6-6.87,13.59-13.56,20.82-19.93L43,53A7.53,7.53,0,0,1,48,51.1Z"></path></svg>