<svg height='300px' width='300px'  fill="white" xmlns="http://www.w3.org/2000/svg" xmlns:xlink="http://www.w3.org/1999/xlink" xml:space="preserve" style="shape-rendering:geometricPrecision;text-rendering:geometricPrecision;image-rendering:optimizeQuality;" viewBox="0 0 100 100" x="0px" y="0px" fill-rule="evenodd" clip-rule="evenodd"><defs><style type="text/css">
   
    .fil0 {fill:white}
   
  </style></defs><g><path class="fil0" d="M72.3455 76.0104c-2.72364,1.50946 -5.5465,2.01616 -8.45085,1.55434 -0.929535,7.06895 -2.32679,11.204 -5.42603,17.4356l-17.2171 0c-0.390948,-8.12487 1.01221,-16.9596 -1.11615,-24.8341 -3.80082,-14.0552 -14.7757,-24.1301 -13.7588,-40.2428 -11.5312,7.32525 -24.7218,-2.31616 -13.5332,-13.4115 5.69886,-5.65162 13.845,-4.75516 21.1891,-4.72327 8.80401,-7.67014 19.1942,-9.03196 29.2467,-3.1205 7.39848,-3.3579 16.7505,-4.00043 21.573,2.8949 9.40283,13.4446 -3.36381,17.1344 -14.7155,11.9399 0.565752,3.58231 4.27444,5.80398 7.47289,7.5662 15.9367,8.27841 16.8934,21.5659 8.78038,35.946 2.74018,10.2887 -6.2091,11.6198 -14.0446,8.99535zm-22.0301 -55.6493c2.66931,0 4.83665,2.2701 4.83665,5.06461 0,2.79569 -2.16734,5.06461 -4.83665,5.06461 -2.67167,0 -4.83901,-2.26892 -4.83901,-5.06461 0,-2.79451 2.16734,-5.06461 4.83901,-5.06461zm-0.500791 2.14136c1.01576,0 1.83899,0.862212 1.83899,1.92521 0,1.063 -0.823235,1.92521 -1.83899,1.92521 -1.01576,0 -1.83899,-0.862212 -1.83899,-1.92521 0,-1.063 0.823235,-1.92521 1.83899,-1.92521zm22.636 29.3837c-3.76066,0.355515 -6.85753,-4.6713 -4.67602,-7.76227 1.96183,-2.78034 7.2721,-1.34411 8.12014,1.92757 -1.55552,-1.90395 -4.52366,-1.62875 -5.75083,0.0921267 -1.40316,1.96891 -0.140552,5.12957 2.30671,5.74256zm-13.3714 -1.99372c2.90317,0.566934 4.09964,1.96301 5.31382,3.94373 4.04295,6.59178 0.931897,15.3462 9.64378,19.1092 7.28155,2.28309 11.2584,1.26025 8.63511,-6.36147 8.86542,-14.7757 6.62604,-25.6124 -6.71698,-32.5077 -7.5225,-4.38783 -10.2639,-7.18588 -9.11228,-15.4997 2.41774,1.34292 7.5851,2.48624 9.91779,3.14058 6.60123,1.85198 10.3891,-1.5508 5.37406,-8.05991 -5.0587,-6.56344 -13.03,-4.1646 -19.075,-1.07363 -9.71701,-6.53745 -19.4163,-5.1591 -27.6994,2.63152 -6.80675,0.0897645 -15.1407,-1.18584 -20.1013,3.73349 -6.04729,5.99769 0.307089,12.7525 6.25635,9.64496l9.35913 -4.89098c-5.02091,18.9568 8.00794,28.6845 12.5729,45.5685 2.04332,7.55675 0.715754,14.8655 1.07481,22.2982 3.94019,0 7.88038,0 11.8206,0 1.99844,-4.0205 3.5953,-9.04613 4.35358,-16.173 -2.126,-4.63586 -4.9087,-9.95795 -8.98826,-13.2993 -1.97364,-1.61576 -0.360239,-4.18232 1.79765,-2.43545 4.45397,3.60948 7.51069,9.22448 9.85047,14.2867 2.1886,0.576382 4.12917,0.407484 5.90083,-0.268112 -6.40517,-4.84374 -3.76538,-12.2777 -7.441,-18.2718 -0.688588,-1.12324 -1.74332,-1.89805 -3.42995,-2.32443 -2.68821,-0.679139 -2.14136,-3.74531 0.693313,-3.19136z"></path></g></svg>