<svg height='300px' width='300px'  fill="white" xmlns="http://www.w3.org/2000/svg" data-name="Layer 1" viewBox="0 0 76.78 69.55" x="0px" y="0px"><title>77</title><path d="M205.17,1817.3l-0.37-.12a2.18,2.18,0,0,1-.44-0.21c-1.14-.62-3-1.62-8.44-1.13a8.32,8.32,0,0,0-8.47,1.21,8.89,8.89,0,0,0-5.07,1.27,2.34,2.34,0,0,0-1,2c0.13,2.08,2.39,3.12,4.52,3.37a12.81,12.81,0,0,0,1.07,3.66c0.15,0.39.31,0.8,0.5,1.31a9.71,9.71,0,0,1,.24,6,4.29,4.29,0,0,1-2.31,2.54l-0.13.05a2.26,2.26,0,0,1-1.48,0c-0.49-.06-1.14-0.15-2.07-0.26-2.74-4.93-6.62-6-9.69-5.85-3-4.14-6.67-4.36-9.66-4.54-0.37,0-.75-0.05-1-0.05a8.42,8.42,0,0,1-.76-0.44c-1.58-1-5.2-3.15-8.88,1-6.19,2.2-14.93,15-15.93,16.5l-0.27.41,0.06,0.49c0.4,2.66.84,7.45,0.33,9a23.23,23.23,0,0,1-3.7,5.92,2.18,2.18,0,0,0-.44,2.58,2.31,2.31,0,0,0,2.81.87l0.13,0c1.94-.71,4.33-5.68,4.36-5.73a0.19,0.19,0,0,1,.26-0.09,0.24,0.24,0,0,1,.08.3s-0.08.17-.19,0.4l0,0,0,0h0l-0.05,0h0c-0.53.45-1,2.15-1.57,2.67a9.86,9.86,0,0,1-1.52,1.76,8.31,8.31,0,0,0-1,1.85,2.41,2.41,0,0,0-.05,1.48,43.51,43.51,0,0,1,.36,7.52c0,1.85,0,3.43.12,4.38a16.34,16.34,0,0,0,1.89,5.81c0.73,1.13,2.75,1.32,3.35,1.36a5,5,0,0,0,4.11-1.41,2.3,2.3,0,0,0,.55-1.81c-0.15-1.26-1.31-2.09-2.33-2.83-0.33-.23-0.82-0.59-0.89-0.66-0.48-1.17-.69-9.13-0.09-12a23.57,23.57,0,0,1,4.81-4.37,13,13,0,0,0-.85,4.52v0.6l0.46,0.39c0.68,0.55,2.24,2.78,5.16,11.37,0.12,0.32.19,0.55,0.21,0.62a5.58,5.58,0,0,1,0,.86c0,1.17-.06,2.78,1,3.8,1.63,1.52,6.49.85,7.72-.14a1.74,1.74,0,0,0,.63-1.71c-0.23-1.52-2.39-3.38-3.8-4-0.75-.85-2-5.58-2.65-8.13-0.35-1.34-.68-2.62-1-3.65a20.05,20.05,0,0,1,2.87-4.37,12.78,12.78,0,0,0,2.26-3.48c0.3-1,0-2.33-.62-4.39-0.14-.5-0.35-1.19-0.49-1.85a7.61,7.61,0,0,0,3.71,2.09c1.49,0.21,2.65-.73,3.58-1.5a9.11,9.11,0,0,1,1-.77,6.38,6.38,0,0,0,1.54,5.29c-0.51,4.7.86,11.7,1.7,16,0.26,1.28.54,2.72,0.55,3.13-0.22,1.21-.28,5.83,1,7.37,0.71,0.84,2.31,1.14,4,1.14a15,15,0,0,0,5.41-.94l0.15-.09a2.11,2.11,0,0,0,.94-1.43c0.23-1.57-1.26-3.38-3-5.47-0.48-.58-0.94-1.13-1.32-1.66-0.75-1-1.62-7.48-2.26-14.81l0.24-.14c2,6.67,7.07,14.22,10.59,19l0.05,0.06a30.85,30.85,0,0,1,1.9,3.1,3.79,3.79,0,0,0,1,1.26c1.19,1.12,3.34,1,5.81.82,0.45,0,.84-0.06,1.12-0.06a3.23,3.23,0,0,0,2.79-1.93,3,3,0,0,0-.19-3.2l-0.27-.35-0.42-.12a20.42,20.42,0,0,1-3.82-2.35c-0.84-.59-1.55-1.1-2.06-1.39s-2.3-2.74-7.72-11.63l-0.71-1.13c-0.75-1.21-1.48-8.61-1.41-9.6a7.07,7.07,0,0,1,1.13-2.17,12.18,12.18,0,0,0,6.08-.18c1.67-.67,7.76-4.55,9.08-8.27,1.14-3.22-.05-13-0.59-16.6a12,12,0,0,0,3.15-1.72c0.39-.27.77-0.53,1.09-0.71l0.41,0.13a6.39,6.39,0,0,0,5.4-.35l0.58-.31,0.09-.64C208.84,1818.33,206.17,1817.58,205.17,1817.3Zm-2.15,3.39a6.46,6.46,0,0,0-1.19-.28l-0.35-.05-0.32.14a12.65,12.65,0,0,0-1.85,1.12,6.77,6.77,0,0,1-3.1,1.49h0l-1.62,0,0.32,1.58c0.5,2.43,1.88,13.82.91,16.55s-6.05,6.13-7.62,6.75a10.38,10.38,0,0,1-4.52.08,1.68,1.68,0,0,0-1.62,0c-1.28.68-2.61,3.43-2.69,4.43-0.05.8,0.53,9.12,1.81,11.18l0.68,1.12c5.91,9.67,7.67,11.95,8.6,12.49,0.44,0.24,1.14.75,1.89,1.27a25.58,25.58,0,0,0,4,2.51,1.24,1.24,0,0,1-.08.27,1,1,0,0,1-.5.5c-0.33,0-.8,0-1.34.08-0.82.08-3.34,0.3-3.83-.14a4.22,4.22,0,0,1-.41-0.4c0-.05-0.05-0.1-0.1-0.18a35.08,35.08,0,0,0-2.08-3.38l-0.08-.13a102.68,102.68,0,0,1-10.48-17.15c-0.42-1.93-1.39-5.29-1.7-6.72a2.66,2.66,0,0,1-.1-0.64,1.79,1.79,0,0,0-1.22-1.34,1.25,1.25,0,0,0-.62,0,4.9,4.9,0,0,0-.15,2c0,0.17,0,.35,0,0.54,0,5.09.59,16,.63,16.68,0.12,2.8.39,5,1,5.74,0.41,0.55.9,1.14,1.4,1.76a19.48,19.48,0,0,1,2.34,3.2c-1.86.62-5.36,0.66-5.94,0.3-0.49-.68-0.69-4.32-0.46-5.2,0.14-.54,0-1.17-0.55-4.16-0.84-4.29-2.25-11.49-1.58-15.74l0.1-.72-0.55-.46a3.76,3.76,0,0,1-.78-4.63l0.6-1.21-1.23-.54A3.5,3.5,0,0,0,167,1849a5.72,5.72,0,0,0-3.49,1.66,3.35,3.35,0,0,1-1.58.94,6.07,6.07,0,0,1-2.54-1.61,6,6,0,0,0-2.49-1.59l-0.75-.17-0.5.57c-1.08,1.23-.49,3.34.21,5.79a12.63,12.63,0,0,1,.63,3,15.23,15.23,0,0,1-1.82,2.63c-1.41,1.81-3,3.88-3.42,5.65l-0.08.33,0.09,0.33c0.32,1,.6,2.45,1.08,3.91,2.13,6.62,2.54,9.26,4.07,9.84a5.83,5.83,0,0,1,2,1.55c-1.16.27-3.22,0.37-3.73,0.05a4.27,4.27,0,0,1-.22-1.86,21.94,21.94,0,0,0-.84-3.65l-0.06-.22-0.24-.73,0-.12c-1.82-5.11-3.34-8.25-4.65-9.71a10.75,10.75,0,0,1,2.74-6.49l0.33-.31,0.06-.46c0-.33.1-0.73,0.18-1.18,0.49-3.1,1.1-7-1.37-7.81l-0.55-.18-0.5.28c-1.54.87-1.86,3.25-2.2,5.76-0.17,1.16-.42,3.08-0.77,3.44l-0.77.58c-1.88,1.4-4.69,3.51-6,5.55l-0.15.36c-0.67,2.66-.73,12.51.33,14.16a6,6,0,0,0,1.58,1.43,7.94,7.94,0,0,1,1.21,1c-0.68.62-2.74,0.41-3.31,0.09a15.17,15.17,0,0,1-1.43-4.56c-0.08-.81-0.08-2.42-0.09-4.11,0-3.06,0-6.51-.46-8.11a6,6,0,0,1,.84-1.44h0c-0.08-.41,3.48-5,3.48-5.54v0c0-.17,0-0.35,0-0.53s0-.57.05-0.85a8.88,8.88,0,0,0-.49-4.61l-1.21-2.39-1.12,2.43c-0.12.28-.26,0.55-0.39,0.81a42.78,42.78,0,0,0-.42-8.22c2.85-4.16,10.25-13.93,14.61-15.17l0.37-.12,0.26-.3c2.34-2.8,4.11-1.72,5.82-.69a4.79,4.79,0,0,0,1.77.78l1.16,0.08c3,0.17,5.76.33,8.09,4l0.42,0.67,0.8-.09c3.64-.39,6.33,1.25,8.22,5l0.31,0.63,0.71,0.08c1.27,0.14,2.11.24,2.69,0.32a4.33,4.33,0,0,0,2.65-.15l0.13,0a6.79,6.79,0,0,0,4-4.42,11.94,11.94,0,0,0-.37-7.54c-0.17-.46-0.33-0.89-0.49-1.28-0.75-1.91-1.05-2.79-.8-3.53l0.62-1.81-1.91.12a4.73,4.73,0,0,1-3.26-.89,7.69,7.69,0,0,1,3.49-.62l0.77,0.22,0.54-.6s2.31-2.53,6.41-.93l0.3,0.12,0.31,0c4.86-.48,6.37.33,7.28,0.82a5.62,5.62,0,0,0,.84.37l0.49,0.15c0.86,0.23,1.3.36,1.35,1.05A4.05,4.05,0,0,1,203,1820.69Z" transform="translate(-131.61 -1815.22)"></path></svg>