<svg height='300px' width='300px'  fill="white" xmlns:dc="http://purl.org/dc/elements/1.1/" xmlns:cc="http://creativecommons.org/ns#" xmlns:rdf="http://www.w3.org/1999/02/22-rdf-syntax-ns#" xmlns:svg="http://www.w3.org/2000/svg" xmlns="http://www.w3.org/2000/svg" xmlns:sodipodi="http://sodipodi.sourceforge.net/DTD/sodipodi-0.dtd" xmlns:inkscape="http://www.inkscape.org/namespaces/inkscape" viewBox="0 0 8.4666665 8.4666669" version="1.1" x="0px" y="0px"><g transform="translate(0,-288.53332)"><path style="color:white;font-style:normal;font-variant:normal;font-weight:normal;font-stretch:normal;font-size:medium;line-height:normal;font-family:sans-serif;font-variant-ligatures:normal;font-variant-position:normal;font-variant-caps:normal;font-variant-numeric:normal;font-variant-alternates:normal;font-feature-settings:normal;text-indent:0;text-align:start;text-decoration:none;text-decoration-line:none;text-decoration-style:solid;text-decoration-color:white;letter-spacing:normal;word-spacing:normal;text-transform:none;writing-mode:lr-tb;direction:ltr;text-orientation:mixed;dominant-baseline:auto;baseline-shift:baseline;text-anchor:start;white-space:normal;shape-padding:0;clip-rule:nonzero;display:inline;overflow:visible;visibility:visible;opacity:1;isolation:auto;mix-blend-mode:normal;color-interpolation:sRGB;color-interpolation-filters:linearRGB;solid-color:white;solid-opacity:1;fill:white;fill-opacity:1;fill-rule:evenodd;stroke:none;stroke-width:0.26499999;stroke-linecap:round;stroke-linejoin:round;stroke-miterlimit:4;stroke-dasharray:none;stroke-dashoffset:0;stroke-opacity:1;color-rendering:auto;image-rendering:auto;shape-rendering:auto;text-rendering:auto;enable-background:accumulate" d="m 7.0884699,289.26055 c -0.2422922,-0.0484 -0.4920985,0.0422 -0.6464512,0.23514 l -0.1539901,0.19272 c -0.131363,0.1642 -0.2025624,0.36849 -0.2025676,0.57878 v 0.91207 c 0,0.0745 -0.057772,0.13226 -0.1322864,0.13226 h -0.070276 l -0.5151993,-0.61854 c -0.081801,-0.0982 -0.1833589,-0.17851 -0.2976457,-0.23564 l -0.4893627,-0.24492 c -0.090538,-0.0453 -0.1728444,-0.10464 -0.2444221,-0.17624 L 3.9776499,289.67807 C 3.837688,289.53813 3.6479791,289.45952 3.4500496,289.45952 H 3.2438651 c -0.1620123,0 -0.3181482,0.0593 -0.4392348,0.1669 l -2.05355822,1.82515 c -0.14119489,0.12549 -0.22168114,0.30562 -0.22168379,0.49453 v 0.68831 a 0.13250905,0.13250905 0 1 0 0.2645754,0 v -0.68831 c 2.64e-6,-0.11337 0.0485854,-0.2213 0.13332089,-0.29662 l 0.13125452,-0.11679 v 1.76316 c -0.14466889,0 -0.26457541,0.11991 -0.26457541,0.26458 v 1.9843 c 0,0.21772 0.17913614,0.39687 0.39686181,0.39687 h 0.6614371 a 0.13250905,0.13250905 0 0 0 0.093533,-0.22585 L 1.494157,295.26413 c -0.024818,-0.0249 -0.038756,-0.0584 -0.038756,-0.0935 v -0.85314 c 2.7e-6,-0.0309 0.011218,-0.0605 0.031004,-0.0842 L 1.8522626,293.794 v 0.56015 a 0.13250905,0.13250905 0 0 0 0.00212,0.0238 l 0.2247847,1.23758 c 0.034179,0.18796 0.1996308,0.3261 0.3906652,0.3261 h 0.705358 a 0.13250905,0.13250905 0 0 0 0.08268,-0.23566 l -0.562221,-0.45006 c -0.031406,-0.0251 -0.049604,-0.0626 -0.049607,-0.10284 v -0.78028 l 0.2392547,-0.83715 c 0.016907,-0.0591 0.025321,-0.1199 0.025321,-0.18137 v -0.36433 c 0,-0.0951 0.083947,-0.15936 0.1756965,-0.13433 l 0.8841555,0.2413 c 0.06395,0.0175 0.1022905,0.0779 0.090432,0.14314 l -0.222205,1.22211 a 0.13250905,0.13250905 0 0 0 -0.00159,0.0367 l 0.1059339,1.05982 c 0.021616,0.21605 0.2055759,0.38242 0.4226983,0.38242 h 0.2645754 a 0.13250905,0.13250905 0 0 0 0.1183349,-0.19174 l -0.2227183,-0.4454 c -0.018362,-0.0367 -0.027906,-0.0768 -0.027906,-0.11784 v -0.20979 c 0,-0.0465 0.00839,-0.0927 0.024289,-0.13645 l 0.2402867,-0.6609 v 1.36525 c 0,0.21772 0.1791361,0.39687 0.3968617,0.39687 h 0.5291508 a 0.13250905,0.13250905 0 0 0 0.1059339,-0.21187 L 5.5299709,295.37632 C 5.461293,295.28475 5.424037,295.17349 5.424037,295.05903 v -0.47384 c 0,-0.0527 0.00826,-0.10517 0.023786,-0.15555 l 0.3064298,-0.99528 c 0.1017085,-0.33055 0.390697,-0.56759 0.7348167,-0.60198 a 0.13250905,0.13250905 0 0 0 0.00982,0 c 0.4765622,-0.0843 0.8136917,-0.51838 0.7771898,-1.00095 v -1.18076 c 0,-0.22063 0.1762283,-0.39684 0.3968617,-0.39684 H 7.80523 c 0.2177257,0 0.3968618,-0.17915 0.3968618,-0.39688 v -0.0475 c 5.3e-6,-0.18847 -0.1340247,-0.35267 -0.3188335,-0.38963 z m -0.051673,0.25993 0.7942421,0.15862 c 0.062532,0.0124 0.1064498,0.0659 0.1064472,0.12972 v 0.0476 c 0,0.0745 -0.057772,0.13229 -0.1322864,0.13229 h -0.132289 c -0.3638444,0 -0.6614372,0.29758 -0.6614372,0.66143 v 1.1906 a 0.13250905,0.13250905 0 0 0 0,0.01 c 0.026405,0.34907 -0.2138601,0.65932 -0.5586042,0.72033 h 0.00775 c -0.4484582,0.0458 -0.8275002,0.35549 -0.9601173,0.78647 l -0.3059166,0.99579 c -0.023283,0.0756 -0.035139,0.15391 -0.035139,0.23307 v 0.47384 c 0,0.17177 0.055586,0.33904 0.1586442,0.47644 l 0.1059312,0.14107 H 5.1594484 c -0.074515,0 -0.1322864,-0.0578 -0.1322864,-0.13229 v -2.11659 a 0.13250905,0.13250905 0 0 0 -0.2568231,-0.0455 l -0.4971124,1.36729 c -0.026458,0.0728 -0.039788,0.14944 -0.039788,0.22688 v 0.20979 c 2.6e-6,0.0822 0.01905,0.16319 0.055809,0.23669 l 0.127119,0.25371 h -0.050641 c -0.083262,0 -0.1508707,-0.0613 -0.1591575,-0.14419 l -0.1038675,-1.04122 0.2185856,-1.20404 c 0.036039,-0.19815 -0.086805,-0.39346 -0.2811119,-0.44646 L 3.1560187,292.601 c -0.2538095,-0.0692 -0.5100293,0.12658 -0.5100293,0.38962 v 0.36434 c -5.03e-5,0.0367 -0.00542,0.0732 -0.015505,0.1085 l -0.2444221,0.85471 a 0.13250905,0.13250905 0 0 0 -0.00466,0.0367 v 0.79888 c 7.9e-6,0.12052 0.054716,0.23477 0.1488228,0.31007 l 0.2676763,0.21391 H 2.469771 c -0.064699,0 -0.1181312,-0.0449 -0.1297067,-0.10853 l -0.2232342,-1.22624 v -0.91411 a 0.13250905,0.13250905 0 0 0 -0.2340848,-0.0848 l -0.5999454,0.71983 c -0.059441,0.0713 -0.091974,0.16139 -0.091982,0.25426 v 0.85315 c 0,0.10525 0.041839,0.20616 0.1162712,0.28059 l 0.2258165,0.22582 H 1.1908175 c -0.074515,0 -0.1322864,-0.0578 -0.1322864,-0.13229 v -1.98429 a 0.13250905,0.13250905 0 0 0 0.090945,-0.0383 c 0.09602,-0.04 0.1736275,-0.11695 0.1736275,-0.22633 V 291.312 a 0.13250905,0.13250905 0 0 0 -5.292e-4,-0.0135 l 1.6577284,-1.47379 c 0.072633,-0.0646 0.166362,-0.10025 0.2635408,-0.10025 h 0.2061845 c 0.1277488,0 0.2502006,0.0507 0.3405346,0.14108 l 0.3581295,0.35819 c 0.091712,0.0917 0.1976516,0.16783 0.3136661,0.22582 l 0.4893601,0.24493 c 0.081592,0.0408 0.1539822,0.0979 0.2123811,0.16796 l 0.55499,0.66609 a 0.13250905,0.13250905 0 0 0 0.1017984,0.0475 h 0.1322864 c 0.2177256,0 0.3968617,-0.17915 0.3968617,-0.39685 v -0.91207 c 5.3e-6,-0.15018 0.051403,-0.29615 0.1452087,-0.41341 l 0.1539901,-0.19225 c 0.092797,-0.11596 0.2418953,-0.17018 0.3875617,-0.14105 z"></path></g></svg>