<svg height='300px' width='300px'  fill="white" xmlns="http://www.w3.org/2000/svg" xmlns:xlink="http://www.w3.org/1999/xlink" viewBox="0 0 100 100" version="1.1" x="0px" y="0px"><title>Close 7.8</title><desc>Created with Sketch.</desc><g stroke="none" stroke-width="1" fill="none" fill-rule="evenodd"><g fill-rule="nonzero" fill="white"><path d="M72.2057457,32.2942543 C73.4728274,31.0271726 73.4676091,28.9676091 72.1972699,27.6972699 L72.3027301,27.8027301 C71.0309674,26.5309674 68.9668282,26.5331718 67.7057457,27.7942543 L50.7118106,44.7881894 C50.3186885,45.1813115 49.6858478,45.1858478 49.2881894,44.7881894 L32.2942543,27.7942543 C31.0271726,26.5271726 28.9676091,26.5323909 27.6972699,27.8027301 L27.8027301,27.6972699 C26.5309674,28.9690326 26.5331718,31.0331718 27.7942543,32.2942543 L44.7881894,49.2881894 C45.1813115,49.6813115 45.1858478,50.3141522 44.7881894,50.7118106 L27.7942543,67.7057457 C26.5271726,68.9728274 26.5323909,71.0323909 27.8027301,72.3027301 L27.6972699,72.1972699 C28.9690326,73.4690326 31.0331718,73.4668282 32.2942543,72.2057457 L49.2881894,55.2118106 C49.6813115,54.8186885 50.3141522,54.8141522 50.7118106,55.2118106 L67.7057457,72.2057457 C68.9728274,73.4728274 71.0323909,73.4676091 72.3027301,72.1972699 L72.1972699,72.3027301 C73.4690326,71.0309674 73.4668282,68.9668282 72.2057457,67.7057457 L55.2118106,50.7118106 C54.8186885,50.3186885 54.8141522,49.6858478 55.2118106,49.2881894 L72.2057457,32.2942543 Z"></path></g></g></svg>