<svg xmlns="http://www.w3.org/2000/svg" data-name="Layer 1" viewBox="0 0 100 100" width="300px" height="300px" x="0px" y="0px" fill="white">
   <defs>
      <style>
         .cls-1
         {
            fill-rule:evenodd;
         }
         #gScale
         {
            transform: translate(0px, 0px) scale(0.5);
         }
      </style>
   </defs>

   <!--<rect fill="red" x="0px" y="0px" width="100%" height="100%"/>-->

   <g id="gScale">
      <path class="cls-1" d="M88.281,27.612H69.492V54.888a3.444,3.444,0,0,1-3.443,3.44H33.636l-3.91,3.433V68.9H61.665A3.456,3.456,0,0,1,64,69.812l11.165,9.81V72.338A3.446,3.446,0,0,1,78.6,68.9h9.678V27.612ZM19.836,57.549a3.444,3.444,0,0,0-3.44-3.44H6.718V12.825H65.273V54.109H33.334A3.465,3.465,0,0,0,31,55.023L19.836,64.835V57.549ZM92.5,26.833V69.676a3.446,3.446,0,0,1-3.442,3.44H79.38V84.284a2.112,2.112,0,0,1-3.5,1.586L61.363,73.116H28.947a3.444,3.444,0,0,1-3.44-3.44V65.468l-6.388,5.613a2.109,2.109,0,0,1-3.5-1.584V58.328H5.939a3.444,3.444,0,0,1-3.44-3.44V12.047a3.444,3.444,0,0,1,3.44-3.44h60.11a3.444,3.444,0,0,1,3.443,3.44V23.393H89.059a3.446,3.446,0,0,1,3.442,3.44ZM55.268,43.044a2.112,2.112,0,0,1-2.11,2.11H18.833a2.11,2.11,0,1,1,0-4.22H53.158a2.112,2.112,0,0,1,2.11,2.11ZM18.833,35.577a2.11,2.11,0,1,1,0-4.219H53.158a2.11,2.11,0,1,1,0,4.219Zm-2.11-11.686A2.109,2.109,0,0,0,18.833,26H41.426a2.11,2.11,0,1,0,0-4.219H18.833A2.109,2.109,0,0,0,16.723,23.891Z"/>
   </g>

   <g transform="translate(15,-952.36218)">
      <g transform="translate(-2214,1883.0003)" style="" fill="white">
         <path 
            d="
               m 2258.9998,-910.63794 
               c -4.934,0 -8.9998,4.06589 -8.9998,9 
               l 0,24.31262 
               c -1.4863,-1.98823 -3.1032,-3.50857 -4.9999,-4.03125 -2.6004,-0.71657 -4.9298,0.2154 -6.4999,1.125 -1.8965,1.50647 -3.553,2.67825 -4.2187,5.0937 -0.6253,2.27855 -0.1636,4.72854 0.9375,7.5625 5.2715,12.6304 11.6573,24.87518 19.5309,33.90625 0.5581,0.64167 1.3995,1.02738 2.2499,1.0313 
               l 26.9995,0 
               c 0.6366,-0.002 1.2707,-0.2136 1.7813,-0.59375 3.1317,-2.32006 5.4709,-6.08072 7.4373,-10.5 1.9665,-4.41928 3.4485,-9.53811 4.2187,-14.53125 0.7702,-4.99314 0.8279,-9.93093 -0.3125,-14 -1.1596,-4.13782 -4.2185,-7.84087 -8.7811,-8.375 -0.7726,-0.022 -1.6051,0.10413 -2.2812,0.1875 -0.588,-1.13021 -1.3785,-2.03782 -2.25,-2.65625 -1.7123,-1.21517 -3.4033,-1.55552 -4.8749,-1.53125 -1.0559,0.0177 -2.015,0.37655 -2.9374,0.875 -0.3693,-0.44074 -0.6669,-1.00249 -1.0938,-1.3125 -1.7075,-1.24005 -3.4618,-1.5625 -4.9061,-1.5625 -0.6837,0 -1.3424,0.10374 -2,0.25 
               l 0,-15.25012 
               c 0,-4.93411 -4.0658,-9 -8.9998,-9 
               z
               m 0,6 
               c 1.7139,0 2.9999,1.28611 2.9999,3 
               l 0,21.00012 
               c -0.01,1.35442 1.0227,2.64333 2.3443,2.93944 1.3217,0.29611 2.8013,-0.43098 3.3744,-1.65819 1.0912,-1.41579 2.2257,-1.38369 3.6562,-0.875 0.3579,0.25995 0.625,0.40927 0.625,1.59375 0,1.34202 1.0043,2.62066 2.3103,2.92924 1.3061,0.30858 2.7802,-0.3835 3.3771,-1.58549 0.78,-1.6193 1.2883,-1.42176 2.6562,-0.90625 0.4101,0.29106 0.6562,0.43508 0.6562,1.5625 0.01,1.15381 0.7458,2.27058 1.8039,2.73065 1.0581,0.46007 2.378,0.23793 3.2273,-0.54315 0.033,0.0663 1.3356,-0.35545 1.8124,-0.1875 1.8589,0.2814 2.7682,1.34199 3.5312,4.03125 0.7905,2.78646 0.8405,7.00153 0.1563,11.4375 -0.6843,4.43597 -2.0883,9.12527 -3.8125,13 -1.5648,3.51666 -3.4482,6.14313 -4.9999,7.53125 
               l -24.2183,0 
               c -5.5931,-7.57441 -18.4973,-27.94873 -18.4372,-34.875 0.8109,-1.33321 2.0739,-2.1981 3.3437,-2.0625 1.5911,0.80298 1.9863,1.6274 2.9375,3.34375 
               l 3.9687,7.9375 
               c 0.5968,1.20199 2.0709,1.89407 3.377,1.58549 1.306,-0.30858 2.3145,-1.58722 2.3104,-2.92924 
               l 0,-36.00012 
               c 0,-1.71389 1.286,-3 2.9999,-3 
               z
               " 
            style="text-indent:0;text-transform:none;direction:ltr;block-progression:tb;baseline-shift:baseline;color:white;enable-background:accumulate;" 
            fill="white" 
            fill-opacity="1" 
            stroke="none" 
            marker="none" 
            visibility="visible" 
            display="inline" 
            overflow="visible"></path>
</g></g>
</svg>