<svg xmlns="http://www.w3.org/2000/svg" data-name="Layer 1" viewBox="0 0 100 100" width="300px" height="300px" x="0px" y="0px" fill="white">
   <defs>
      <style>
         .cls-1
         {
            fill-rule:evenodd;
         }
         #gScale
         {
            transform: translate(0px, 0px) scale(1.05);
         }
      </style>
   </defs>

   <!--<rect fill="red" x="0px" y="0px" width="100%" height="100%"/>-->

   <g id="gScale">
      <path class="cls-1" d="M88.281,27.612H69.492V54.888a3.444,3.444,0,0,1-3.443,3.44H33.636l-3.91,3.433V68.9H61.665A3.456,3.456,0,0,1,64,69.812l11.165,9.81V72.338A3.446,3.446,0,0,1,78.6,68.9h9.678V27.612ZM19.836,57.549a3.444,3.444,0,0,0-3.44-3.44H6.718V12.825H65.273V54.109H33.334A3.465,3.465,0,0,0,31,55.023L19.836,64.835V57.549ZM92.5,26.833V69.676a3.446,3.446,0,0,1-3.442,3.44H79.38V84.284a2.112,2.112,0,0,1-3.5,1.586L61.363,73.116H28.947a3.444,3.444,0,0,1-3.44-3.44V65.468l-6.388,5.613a2.109,2.109,0,0,1-3.5-1.584V58.328H5.939a3.444,3.444,0,0,1-3.44-3.44V12.047a3.444,3.444,0,0,1,3.44-3.44h60.11a3.444,3.444,0,0,1,3.443,3.44V23.393H89.059a3.446,3.446,0,0,1,3.442,3.44ZM55.268,43.044a2.112,2.112,0,0,1-2.11,2.11H18.833a2.11,2.11,0,1,1,0-4.22H53.158a2.112,2.112,0,0,1,2.11,2.11ZM18.833,35.577a2.11,2.11,0,1,1,0-4.219H53.158a2.11,2.11,0,1,1,0,4.219Zm-2.11-11.686A2.109,2.109,0,0,0,18.833,26H41.426a2.11,2.11,0,1,0,0-4.219H18.833A2.109,2.109,0,0,0,16.723,23.891Z"/>
   </g>
</svg>