<svg height='300px' width='300px'  fill="white" xmlns:dc="http://purl.org/dc/elements/1.1/" xmlns:cc="http://creativecommons.org/ns#" xmlns:rdf="http://www.w3.org/1999/02/22-rdf-syntax-ns#" xmlns:svg="http://www.w3.org/2000/svg" xmlns="http://www.w3.org/2000/svg" xmlns:sodipodi="http://sodipodi.sourceforge.net/DTD/sodipodi-0.dtd" xmlns:inkscape="http://www.inkscape.org/namespaces/inkscape" version="1.1" x="0px" y="0px" viewBox="0 0 100 100"><g transform="translate(0,-952.36218)"><path style="text-indent:0;text-transform:none;direction:ltr;block-progression:tb;baseline-shift:baseline;color:white;enable-background:accumulate;" d="m 34,961.36217 c -2.05074,-3e-4 -3.2183,1.9731 -2.96875,3.4688 l 0.09375,0.5312 -6.125,0 c -3.27211,0 -6,2.7279 -6,6 l 0,66.00003 c 0,3.2721 2.72789,6 6,6 l 50,0 c 3.27211,0 6,-2.7279 6,-6 l 0,-66.00003 c 0,-3.2721 -2.72789,-6 -6,-6 l -6.125,0 0.0937,-0.5312 c 0.27014,-1.7084 -1.23921,-3.4718 -2.9687,-3.4688 l -32,0 z m 3.5625,6 24.875,0 -1,6.00002 -22.875,0 -1,-6.00002 z m -12.5625,4 7.125,0 0.90625,5.46882 c 0.22133,1.3982 1.55301,2.5337 2.96875,2.5312 l 28,0 c 1.41574,0 2.74742,-1.133 2.96875,-2.5312 l 0.90625,-5.46882 7.125,0 0,66.00003 -50,0 0,-66.00003 z m 25,20.00002 c -1.6568,0 -3,1.3431 -3,3 l 0,11.00001 -11,0 c -1.6569,0 -3,1.3432 -3,3 0,1.6568 1.3431,3 3,3 l 11,0 0,11 c 0,1.6569 1.3432,3 3,3 1.6568,0 3,-1.3431 3,-3 l 0,-11 11,0 c 1.6568,0 3,-1.3432 3,-3 0,-1.6568 -1.3432,-3 -3,-3 l -11,0 0,-11.00001 c 0,-1.6569 -1.3432,-3 -3,-3 z" fill="white" fill-opacity="1" fill-rule="nonzero" stroke="none" marker="none" visibility="visible" display="inline" overflow="visible"></path></g></svg>