<svg height='300px' width='300px'  fill="white" xmlns:dc="http://purl.org/dc/elements/1.1/" xmlns:cc="http://creativecommons.org/ns#" xmlns:rdf="http://www.w3.org/1999/02/22-rdf-syntax-ns#" xmlns:svg="http://www.w3.org/2000/svg" xmlns="http://www.w3.org/2000/svg" xmlns:sodipodi="http://sodipodi.sourceforge.net/DTD/sodipodi-0.dtd" xmlns:inkscape="http://www.inkscape.org/namespaces/inkscape" version="1.1" x="0px" y="0px" viewBox="0 0 100 100"><g transform="translate(0,-952.36218)"><path style="text-indent:0;text-transform:none;direction:ltr;block-progression:tb;baseline-shift:baseline;color:white;enable-background:accumulate;" d="m 87,1041.3622 a 2.0001995,2.0001995 0 0 0 2,-2 l 0,-54.00001 a 2.0001995,2.0001995 0 0 0 -2,-2 l -18,0 0,-18 a 2.0001995,2.0001995 0 0 0 -2,-2 l -54,0 a 2.0001995,2.0001995 0 0 0 -2,2 l 0,54.00001 a 2.0001995,2.0001995 0 0 0 2,2 l 18,0 0,18 a 2.0001995,2.0001995 0 0 0 2,2 l 54,0 z m -2,-4 -50,0 0,-50.00001 50,0 0,50.00001 z m -54,-20 -16,0 0,-50.00001 50,0 0,16 -32,0 a 2.0001995,2.0001995 0 0 0 -2,2 l 0,32.00001 z" fill="white" fill-opacity="1" stroke="none" marker="none" visibility="visible" display="inline" overflow="visible"></path></g></svg>