<svg height='300px' width='300px'  fill="white" xmlns="http://www.w3.org/2000/svg" xmlns:xlink="http://www.w3.org/1999/xlink" version="1.1" x="0px" y="0px" viewBox="0 0 100 100" style="enable-background:new 0 0 100 100;" xml:space="preserve"><title>60 all</title><path d="M58.3,18.7H21.7c-1.7,0-3,1.3-3,3v36.6c0,1.7,1.3,3,3,3h36.6c1.7,0,3-1.3,3-3V21.7C61.3,20.1,60,18.7,58.3,18.7z M55.3,55.3  H24.7V24.7h30.6V55.3z"></path><path d="M44.7,75.3v-10h-6v13c0,1.7,1.3,3,3,3h36.6c1.7,0,3-1.3,3-3V41.7c0-1.7-1.3-3-3-3h-13v6h10v30.6H44.7z"></path></svg>