<svg height='300px' width='300px' fill="white" xmlns="http://www.w3.org/2000/svg" xmlns:xlink="http://www.w3.org/1999/xlink" version="1.0" x="0px" y="0px" viewBox="-5 0 100 100" enable-background="new 0 0 100 100" xml:space="preserve">

<!--<rect width="100%" height="100%" fill="red"/>-->

<g><path d="M43.9577141,75.0884323c-1.7915115,0-2.7617607-2.3256912-1.104702-3.5684891L68.9480362,50L42.8530121,28.4836884   c-1.6570587-1.2464275-0.6868095-3.5721226,1.104702-3.5721226h12.6968422c0.5305481,0,1.0138588,0.2216682,1.3736153,0.5596218   l27.904705,23.0207443c0.9702454,0.7958221,0.944809,2.249382-0.0181732,3.0270386L58.0281715,74.5288162   c-0.3561249,0.3379517-0.8430672,0.5596161-1.3736153,0.5596161H43.9577141z"></path><path d="M15.3116961,75.0884323c-1.795146,0-2.7653961-2.3256912-1.1083393-3.5684891L40.2983818,50L14.2033567,28.4836884   c-1.6570568-1.2464275-0.6868067-3.5721226,1.1083393-3.5721226h12.6932058c0.5341835,0,1.0174923,0.2216682,1.3663464,0.5596218   l27.9156055,23.0207443c0.9593506,0.7958221,0.9411812,2.249382-0.0181694,3.0270386L29.3712482,74.5288162   c-0.3488541,0.3379517-0.8321629,0.5596161-1.3663464,0.5596161H15.3116961z"></path></g></svg>