<svg height='300px' width='300px'  fill="white" xmlns="http://www.w3.org/2000/svg" xmlns:xlink="http://www.w3.org/1999/xlink" version="1.1" x="0px" y="0px" viewBox="0 0 16 16" style="enable-background:new 0 0 16 16;" xml:space="preserve"><g><path d="M13.5,14h-11C2.224,14,2,13.776,2,13.5v-11C2,2.224,2.224,2,2.5,2h11C13.776,2,14,2.224,14,2.5v11   C14,13.776,13.776,14,13.5,14z M3,13h10V3H3V13z"></path><path d="M11.5,12h-7C4.224,12,4,11.776,4,11.5v-2C4,9.224,4.224,9,4.5,9h7C11.776,9,12,9.224,12,9.5v2C12,11.776,11.776,12,11.5,12   z M5,11h6v-1H5V11z"></path></g></svg>