<svg xmlns="http://www.w3.org/2000/svg" viewBox="0 0 100 100" fill="white" x="0px" y="0px" width="300px" height="300px">

   <!--<rect fill="red" x="0px" y="0px" width="100%" height="100%"/>-->

   <path fill-rule="evenodd" clip-rule="evenodd" d="M32 19.5C25.0964 19.5 19.5 25.0964 19.5 32C19.5 38.9036 25.0964 44.5 32 44.5C38.9036 44.5 44.5 38.9036 44.5 32C44.5 25.0964 38.9036 19.5 32 19.5ZM26.5 32C26.5 28.9624 28.9624 26.5 32 26.5C35.0376 26.5 37.5 28.9624 37.5 32C37.5 35.0376 35.0376 37.5 32 37.5C28.9624 37.5 26.5 35.0376 26.5 32Z"/>
   
   <path fill-rule="evenodd" clip-rule="evenodd" d="M11 5.5C7.96244 5.5 5.5 7.96243 5.5 11V89C5.5 92.0376 7.96243 94.5 11 94.5H89C92.0376 94.5 94.5 92.0376 94.5 89V11C94.5 7.96244 92.0376 5.5 89 5.5H11ZM87.5 87.5H47.8566L77.3611 59.8645L87.5 69.9547V87.5ZM87.5 12.5V60.0789L80.2459 52.8597C78.7188 51.3399 76.2623 51.3027 74.6898 52.7755L65.9518 60.96L53.2586 47.92C51.7084 46.3275 49.1572 46.304 47.5779 47.8677L12.5 82.5993V12.5H87.5ZM37.6169 87.5L60.8419 65.7462L50.353 54.9707L17.4994 87.5H37.6169Z"/>
   
</svg>