<svg height='300px' width='300px'  fill="white" xmlns="http://www.w3.org/2000/svg" xmlns:xlink="http://www.w3.org/1999/xlink" version="1.1" x="0px" y="0px" viewBox="0 0 512 512" style="enable-background:new 0 0 512 512;" xml:space="preserve"><g><g><path d="M404.637,356H232.818c-22.057,0-40,17.944-40,40s17.943,40,40,40h171.818c22.056,0,40-17.944,40-40    S426.692,356,404.637,356z"></path><path d="M404.637,216H232.818c-22.057,0-40,17.944-40,40c0,22.056,17.943,40,40,40h171.818c22.056,0,40-17.944,40-40    C444.637,233.944,426.692,216,404.637,216z"></path><path d="M107.363,356c-22.056,0-40,17.944-40,40s17.944,40,40,40c22.057,0,40-17.944,40-40S129.42,356,107.363,356z"></path><path d="M107.363,76c-22.056,0-40,17.944-40,40s17.944,40,40,40c22.057,0,40-17.944,40-40S129.42,76,107.363,76z"></path><path d="M232.818,156h171.818c22.056,0,40-17.944,40-40s-17.944-40-40-40H232.818c-22.057,0-40,17.944-40,40    S210.762,156,232.818,156z"></path><path d="M107.363,216c-22.056,0-40,17.944-40,40c0,22.056,17.944,40,40,40c22.057,0,40-17.944,40-40    C147.363,233.944,129.42,216,107.363,216z"></path></g></g></svg>