<svg height='300px' width='300px'  fill="white" xmlns="http://www.w3.org/2000/svg" viewBox="0 0 96 96" x="0px" y="0px"><title>Artboard 13</title><g><path d="M20,16a8,8,0,1,0,8,8A8.0079,8.0079,0,0,0,20,16Zm0,12a4,4,0,1,1,4-4A4.0052,4.0052,0,0,1,20,28Z"></path><path d="M36,22H82a2,2,0,0,0,0-4H36a2,2,0,0,0,0,4Z"></path><path d="M82,26H36a2,2,0,0,0,0,4H82a2,2,0,0,0,0-4Z"></path><path d="M20,40a8,8,0,1,0,8,8A8.0079,8.0079,0,0,0,20,40Zm0,12a4,4,0,1,1,4-4A4.0052,4.0052,0,0,1,20,52Z"></path><path d="M82,42H36a2,2,0,0,0,0,4H82a2,2,0,0,0,0-4Z"></path><path d="M82,50H36a2,2,0,0,0,0,4H82a2,2,0,0,0,0-4Z"></path><path d="M20,64a8,8,0,1,0,8,8A8.0079,8.0079,0,0,0,20,64Zm0,12a4,4,0,1,1,4-4A4.0052,4.0052,0,0,1,20,76Z"></path><path d="M82,66H36a2,2,0,0,0,0,4H82a2,2,0,0,0,0-4Z"></path><path d="M82,74H36a2,2,0,0,0,0,4H82a2,2,0,0,0,0-4Z"></path></g></svg>