<svg height='300px' width='300px'  fill="white" xmlns:dc="http://purl.org/dc/elements/1.1/" xmlns:cc="http://creativecommons.org/ns#" xmlns:rdf="http://www.w3.org/1999/02/22-rdf-syntax-ns#" xmlns:svg="http://www.w3.org/2000/svg" xmlns="http://www.w3.org/2000/svg" xmlns:sodipodi="http://sodipodi.sourceforge.net/DTD/sodipodi-0.dtd" xmlns:inkscape="http://www.inkscape.org/namespaces/inkscape" version="1.1" x="0px" y="0px" viewBox="0 0 100 100"><g transform="translate(0,-952.36218)"><path style="text-indent:0;text-transform:none;direction:ltr;block-progression:tb;baseline-shift:baseline;color:white;enable-background:accumulate;" d="m 47,957.36217 0,9.15625 c -17.4612,1.44716 -31.3966,15.38259 -32.8438,32.84377 l -9.1562,0 0,6.00001 9.1562,0 c 1.4472,17.4617 15.3819,31.4285 32.8438,32.875 l 0,9.125 6,0 0,-9.125 c 17.4619,-1.4465 31.3966,-15.4133 32.8438,-32.875 l 9.1562,0 0,-6.00001 -9.1562,0 C 84.3966,981.90101 70.4612,967.96558 53,966.51842 l 0,-9.15625 -6,0 z m -0.062,15.15625 c 0.021,-0.002 0.042,0.002 0.062,0 l 0,12.84377 6,0 0,-12.84377 c 14.193,1.40558 25.4376,12.65107 26.8438,26.84377 l -12.8438,0 0,6.00001 12.8438,0 C 78.4381,1019.5555 67.1934,1030.8003 53,1032.2059 l 0,-12.8437 -6,0 0,12.8437 c -14.1934,-1.4056 -25.4381,-12.6504 -26.8438,-26.8437 l 12.8438,0 0,-6.00001 -12.8438,0 c 1.4041,-14.1718 12.618,-25.41133 26.7813,-26.84377 z" fill="white" fill-opacity="1" stroke="none" marker="none" visibility="visible" display="inline" overflow="visible"></path></g></svg>