<svg height='300px' width='300px'  fill="white" xmlns="http://www.w3.org/2000/svg" data-name="Your Icon" viewBox="0 0 100 100" x="0px" y="0px"><title>Crosshair_SVG</title><path d="M81,47.5H78A28.15,28.15,0,0,0,52.5,22V19a2.5,2.5,0,0,0-5,0v3A28.15,28.15,0,0,0,22,47.5H19a2.5,2.5,0,0,0,0,5h3A28.15,28.15,0,0,0,47.5,78v3a2.5,2.5,0,0,0,5,0V78A28.15,28.15,0,0,0,78,52.5h3a2.5,2.5,0,0,0,0-5ZM50,70.13A20.13,20.13,0,1,1,70.13,50,20.15,20.15,0,0,1,50,70.13Z"></path><path d="M50,63.65A13.65,13.65,0,1,1,63.65,50,13.67,13.67,0,0,1,50,63.65Zm0-19.3A5.65,5.65,0,1,0,55.65,50,5.66,5.66,0,0,0,50,44.35Z"></path></svg>