<svg height='300px' width='300px'  fill="white" xmlns="http://www.w3.org/2000/svg" xmlns:xlink="http://www.w3.org/1999/xlink" xml:space="preserve" version="1.1" style="shape-rendering:geometricPrecision;text-rendering:geometricPrecision;image-rendering:optimizeQuality;" viewBox="0 0 846.66 846.66" x="0px" y="0px" fill-rule="evenodd" clip-rule="evenodd"><defs><style type="text/css">
   
    .fil0 {fill:white;fill-rule:nonzero}
   
  </style></defs><g><path class="fil0" d="M448.33 129.96c142.69,12 256.38,125.69 268.38,268.38l88 0c32.88,0 32.88,50 0,50l-88 0c-12,142.69 -125.69,256.38 -268.38,268.38l0 87.99c0,32.88 -50,32.88 -50,0l0 -87.99c-142.68,-12 -256.41,-125.7 -268.39,-268.39l-87.98 0c-32.88,0 -32.88,-50 0,-50l87.99 0c12,-142.69 125.7,-256.37 268.38,-268.37l0 -88c0,-32.88 50,-32.88 50,0l0 88zm-268.18 268.37l94.28 0c32.88,0 32.88,50 0,50l-94.28 0c11.7,115.04 103.14,206.49 218.18,218.19l0 -94.28c0,-32.88 50,-32.88 50,0l0 94.28c115.03,-11.7 206.48,-103.15 218.18,-218.18l-94.28 0c-32.88,0 -32.88,-50 0,-50l94.28 0c-11.7,-115.03 -103.15,-206.48 -218.18,-218.18l0 94.28c0,32.88 -50,32.88 -50,0l0 -94.28c-115.02,11.7 -206.48,103.14 -218.18,218.17zm243.18 -85.4c60.55,0 110.41,49.95 110.41,110.41 0,60.98 -49.44,110.4 -110.41,110.4 -60.85,0 -110.4,-49.55 -110.4,-110.4 0,-60.97 49.42,-110.41 110.4,-110.41zm0 50c-33.35,0 -60.4,27.06 -60.4,60.41 0,33.46 26.94,60.4 60.4,60.4 33.35,0 60.41,-27.05 60.41,-60.4 0,-33.49 -26.92,-60.41 -60.41,-60.41z"></path></g></svg>