<svg height='300px' width='300px'  fill="white" xmlns="http://www.w3.org/2000/svg" enable-background="new 0 0 100 100" viewBox="0 0 100 100" x="0px" y="0px"><path d="m86 45.9h-2.2c-1.8-15.5-14.2-27.8-29.7-29.7v-2.2c0-2.2-1.8-4-4-4s-4 1.8-4 4v2.2c-15.5 1.8-27.8 14.2-29.7 29.7h-2.2c-2.2 0-4 1.8-4 4s1.8 4 4 4h2.2c1.8 15.5 14.2 27.8 29.7 29.7v2.2c0 2.2 1.8 4 4 4s4-1.8 4-4v-2.2c15.5-1.8 27.8-14.2 29.7-29.7h2.2c2.2 0 4-1.8 4-4s-1.8-4-4-4zm-32 29.6c-.4-1.8-2-3.1-3.9-3.1s-3.5 1.3-3.9 3.1c-11.2-1.7-20-10.5-21.7-21.7 1.8-.4 3.1-2 3.1-3.9s-1.3-3.5-3.1-3.9c1.7-11.2 10.5-20 21.7-21.7.4 1.8 2 3.1 3.9 3.1s3.5-1.3 3.9-3.1c11.2 1.7 20 10.5 21.7 21.7-1.8.4-3.1 2-3.1 3.9s1.3 3.5 3.1 3.9c-1.7 11.2-10.5 20-21.7 21.7z"></path><circle cx="50" cy="50" r="4"></circle></svg>