<svg height='300px' width='300px'  fill="white" xmlns="http://www.w3.org/2000/svg" xmlns:xlink="http://www.w3.org/1999/xlink" xml:space="preserve" version="1.1" style="shape-rendering:geometricPrecision;text-rendering:geometricPrecision;image-rendering:optimizeQuality;" viewBox="0 0 846.66 846.66" x="0px" y="0px" fill-rule="evenodd" clip-rule="evenodd"><defs><style type="text/css">
   
    .fil0 {fill:white;fill-rule:nonzero}
   
  </style></defs><g><path class="fil0" d="M473.33 136.31c120.81,20.9 216.11,116.2 237.01,237.01l-50.91 0c-19.64,-93.13 -92.97,-166.46 -186.1,-186.1l0 -50.91zm-50 224.97c34.27,0 62.04,27.77 62.04,62.04 0,34.27 -27.77,62.04 -62.04,62.04 -34.27,0 -62.04,-27.77 -62.04,-62.04 0,-34.27 27.77,-62.04 62.04,-62.04zm25 463.91c0,32.88 -50,32.88 -50,0l0 -271.14c0,-32.88 50,-32.88 50,0l0 271.14zm105.72 -376.87c-32.88,0 -32.88,-50 0,-50l271.14 0c32.88,0 32.88,50 0,50l-271.14 0zm-532.58 0c-32.88,0 -32.88,-50 0,-50l271.14 0c32.88,0 32.88,50 0,50l-271.14 0zm426.86 -155.71c0,32.88 -50,32.88 -50,0l0 -271.14c0,-32.88 50,-32.88 50,0l0 271.14zm262.01 180.71c-20.9,120.84 -116.17,216.11 -237.01,237.02l0 -50.91c93.14,-19.62 166.48,-92.97 186.1,-186.11l50.91 0zm-337.01 237.02c-120.82,-20.9 -216.12,-116.2 -237.02,-237.02l50.91 0c19.62,93.13 92.98,166.49 186.11,186.11l0 50.91zm-237.02 -337.02c20.92,-120.82 116.19,-216.11 237.02,-237.01l0 50.91c-93.13,19.62 -166.47,92.98 -186.11,186.1l-50.91 0z"></path></g></svg>