<svg height='300px' width='300px'  fill="white" xmlns="http://www.w3.org/2000/svg" viewBox="0 0 55 55" x="0px" y="0px"><path d="M16.1188886,37.5752744 C9.877619,38.6833949 6,40.5908361 6,43.336714 C6,47.426005 15.4379815,50 27.2677485,50 C39.0975155,50 48.535497,47.426005 48.535497,43.336714 C48.535497,40.595734 44.6728547,38.6910273 38.4520371,37.5815788 C37.8068691,37.4665167 37.1905808,37.8962524 37.0755187,38.5414204 C36.9604565,39.1865883 37.3901922,39.8028766 38.0353602,39.9179388 C43.0883559,40.8191127 46.1622718,42.3348907 46.1622718,43.336714 C46.1622718,44.0434601 44.4006887,45.1793284 41.1550374,46.064506 C37.5230344,47.0550523 32.5667868,47.6267748 27.2677485,47.6267748 C21.9687101,47.6267748 17.0124626,47.0550523 13.3804595,46.064506 C10.1348083,45.1793284 8.37322515,44.0434601 8.37322515,43.336714 C8.37322515,42.3318146 11.4619399,40.8124436 16.53376,39.9119557 C17.1790167,39.7973921 17.6092285,39.1814361 17.4946649,38.5361793 C17.3801014,37.8909226 16.7641453,37.4607108 16.1188886,37.5752744 Z M27.3894523,5 C19.2679716,5 12.663286,11.6046856 12.663286,19.7261663 C12.663286,29.933854 25.9561055,43.3444828 26.5206085,43.9114402 C26.7611359,44.1495132 27.0752941,44.2697769 27.3894523,44.2697769 C27.7036105,44.2697769 28.0177688,44.1495132 28.2582961,43.9114402 C28.8227992,43.3444828 42.1156187,29.933854 42.1156187,19.7261663 C42.1156187,11.6046856 35.5109331,5 27.3894523,5 Z M27.3894523,41.2680933 C24.4589452,38.1314199 15.1176471,27.5236714 15.1176471,19.7261663 C15.1176471,12.9594929 20.6227789,7.45436105 27.3894523,7.45436105 C34.1561258,7.45436105 39.6612576,12.9594929 39.6612576,19.7261663 C39.6612576,27.5163083 30.3199594,38.1314199 27.3894523,41.2680933 Z M27.3894523,12.3630832 C23.3299391,12.3630832 20.0263692,15.6666531 20.0263692,19.7261663 C20.0263692,23.7856795 23.3299391,27.0892495 27.3894523,27.0892495 C31.4489655,27.0892495 34.7525355,23.7856795 34.7525355,19.7261663 C34.7525355,15.6666531 31.4489655,12.3630832 27.3894523,12.3630832 Z M27.3894523,24.6348884 C24.6822921,24.6348884 22.4807302,22.4333266 22.4807302,19.7261663 C22.4807302,17.0190061 24.6822921,14.8174442 27.3894523,14.8174442 C30.0966126,14.8174442 32.2981744,17.0190061 32.2981744,19.7261663 C32.2981744,22.4333266 30.0966126,24.6348884 27.3894523,24.6348884 Z"></path></svg>