<svg height='300px' width='300px'  fill="white" xmlns="http://www.w3.org/2000/svg" xmlns:xlink="http://www.w3.org/1999/xlink" version="1.1" x="0px" y="0px" viewBox="0 0 100 100" enable-background="new 0 0 100 100" xml:space="preserve">
<path d="M21.5,96.8h57c4.1,0,7.4-3.3,7.4-7.4V48.5c0-4.1-3.3-7.4-7.4-7.4h-0.2v-9.8c0-15.5-12.6-28.1-28.1-28.1  c-15.5,0-28.1,12.6-28.1,28.1v9.8h-0.7c-4.1,0-7.4,3.3-7.4,7.4v40.9C14.1,93.5,17.4,96.8,21.5,96.8z M34.4,31.3  c0-8.7,7.1-15.8,15.8-15.8c8.7,0,15.8,7.1,15.8,15.8v9.8H34.4V31.3z"></path>
</svg>