<svg height='300px' width='300px'  fill="white" xmlns="http://www.w3.org/2000/svg" xmlns:xlink="http://www.w3.org/1999/xlink" version="1.1" x="0px" y="0px" viewBox="0 0 100 100" style="enable-background:new 0 0 100 100;" xml:space="preserve"><g><g><path d="M84.9,10H15.1c-5.5,0-10,4.5-10,10v40.6c0,5.5,4.5,10,10,10h39L74,90l0-19.4h10.9c5.5,0,10-4.5,10-10V20    C94.9,14.5,90.4,10,84.9,10z M90.9,60.6c0,3.3-2.7,6-6,6H74h-4v4l0,9.9L56.9,67.8l-1.2-1.1h-1.6h-39c-3.3,0-6-2.7-6-6V20    c0-3.3,2.7-6,6-6h69.9c3.3,0,6,2.7,6,6V60.6z"></path></g><g><circle cx="49.4" cy="40.5" r="6"></circle></g><g><path d="M65.8,33.8l-2.5-4.3c-0.5-0.8-1.5-1.1-2.3-0.7l-2.2,1c-1.4-1.2-3.1-2.2-4.9-2.8l-0.2-2.5c-0.1-0.9-0.9-1.6-1.8-1.6h-4.9    c-0.9,0-1.7,0.7-1.8,1.6l-0.2,2.5c-1.8,0.6-3.5,1.6-4.9,2.8l-2.2-1c-0.8-0.4-1.9-0.1-2.3,0.7L33,33.8c-0.5,0.8-0.2,1.8,0.5,2.4    l2,1.4c-0.2,0.9-0.3,1.9-0.3,2.8s0.1,1.9,0.3,2.8l-2,1.4c-0.8,0.5-1,1.6-0.5,2.4l2.5,4.3c0.5,0.8,1.5,1.1,2.3,0.7l2.2-1    c1.4,1.2,3.1,2.2,4.9,2.8l0.2,2.5c0.1,0.9,0.9,1.6,1.8,1.6h4.9c0.9,0,1.7-0.7,1.8-1.6l0.2-2.5c1.8-0.6,3.5-1.6,4.9-2.8l2.2,1    c0.8,0.4,1.9,0.1,2.3-0.7l2.5-4.3c0.5-0.8,0.2-1.8-0.5-2.4l-2-1.4c0.2-0.9,0.3-1.9,0.3-2.8s-0.1-1.9-0.3-2.8l2-1.4    C66,35.7,66.3,34.6,65.8,33.8z M49.4,50c-5.3,0-9.5-4.3-9.5-9.5s4.3-9.5,9.5-9.5c5.3,0,9.5,4.3,9.5,9.5S54.7,50,49.4,50z"></path></g></g></svg>