<svg height='300px' width='300px'  fill="white" xmlns="http://www.w3.org/2000/svg" xmlns:xlink="http://www.w3.org/1999/xlink" version="1.1" x="0px" y="0px" viewBox="0 0 100 100" style="enable-background:new 0 0 100 100;" xml:space="preserve"><path d="M12.9,80c0,3.8,3.2,7.1,7,7.1c3.8,0,7-3.2,7-7.1c0-3.8-3.2-7.1-7-7.1C16.1,73,12.9,76.2,12.9,80z"></path><path d="M12.9,50c0,3.8,3.2,7.1,7,7.1c3.8,0,7-3.2,7-7.1c0-3.8-3.2-7.1-7-7.1C16.1,43,12.9,46.2,12.9,50z"></path><path d="M12.9,20c0,3.8,3.2,7.1,7,7.1c3.8,0,7-3.2,7-7.1c0-3.8-3.2-7.1-7-7.1C16.1,13,12.9,16.2,12.9,20z"></path><path d="M82.9,27.1H39.6c-3.9,0-7.1-3.2-7.1-7.1v0c0-3.9,3.2-7.1,7.1-7.1h43.3c3.9,0,7.1,3.2,7.1,7.1v0C90,23.9,86.8,27.1,82.9,27.1  z"></path><path d="M82.9,57.1H39.6c-3.9,0-7.1-3.2-7.1-7.1v0c0-3.9,3.2-7.1,7.1-7.1h43.3c3.9,0,7.1,3.2,7.1,7.1v0C90,53.9,86.8,57.1,82.9,57.1  z"></path><path d="M82.9,87.1H39.6c-3.9,0-7.1-3.2-7.1-7.1v0c0-3.9,3.2-7.1,7.1-7.1h43.3c3.9,0,7.1,3.2,7.1,7.1v0C90,83.9,86.8,87.1,82.9,87.1  z"></path></svg>