<svg height='300px' width='300px'  fill="white" xmlns="http://www.w3.org/2000/svg" viewBox="0 0 64 64" x="0px" y="0px"><title>Library </title><g data-name="Layer 2"><path d="M15.91,56.32h-10A2.92,2.92,0,0,1,3,53.4V11.12A2.92,2.92,0,0,1,5.92,8.2h10a2.92,2.92,0,0,1,2.92,2.92V53.4A2.92,2.92,0,0,1,15.91,56.32ZM5.92,10.2a.92.92,0,0,0-.92.92V53.4a.92.92,0,0,0,.92.92h10a.92.92,0,0,0,.92-.92V11.12a.92.92,0,0,0-.92-.92Z"></path><path d="M17.83,49.4H4a1,1,0,0,1-1-1V16.12a1,1,0,0,1,1-1H17.83a1,1,0,0,1,1,1V48.4A1,1,0,0,1,17.83,49.4ZM5,47.4H16.83V17.12H5Z"></path><path d="M13.22,45.29H8.61a1,1,0,0,1-1-1V20.23a1,1,0,0,1,1-1h4.61a1,1,0,0,1,1,1V44.29A1,1,0,0,1,13.22,45.29Zm-3.61-2h2.61V21.23H9.61Z"></path><path d="M29.75,56.32h-10a2.93,2.93,0,0,1-2.93-2.92V11.12A2.93,2.93,0,0,1,19.76,8.2h10a2.92,2.92,0,0,1,2.92,2.92V53.4A2.92,2.92,0,0,1,29.75,56.32Zm-10-46.12a.93.93,0,0,0-.93.92V53.4a.93.93,0,0,0,.93.92h10a.92.92,0,0,0,.92-.92V11.12a.92.92,0,0,0-.92-.92Z"></path><path d="M31.67,49.4H17.83a1,1,0,0,1-1-1V16.12a1,1,0,0,1,1-1H31.67a1,1,0,0,1,1,1V48.4A1,1,0,0,1,31.67,49.4Zm-12.84-2H30.67V17.12H18.83Z"></path><path d="M27.06,45.29H22.45a1,1,0,0,1-1-1V20.23a1,1,0,0,1,1-1h4.61a1,1,0,0,1,1,1V44.29A1,1,0,0,1,27.06,45.29Zm-3.61-2h2.61V21.23H23.45Z"></path><path d="M48.75,56.45A3,3,0,0,1,46,54.57L30.89,15.1A2.9,2.9,0,0,1,31,12.86a2.87,2.87,0,0,1,1.62-1.53L41.9,7.75a2.92,2.92,0,0,1,3.77,1.68L60.81,48.9a3,3,0,0,1-.06,2.24,2.92,2.92,0,0,1-1.63,1.53l-9.33,3.58A2.87,2.87,0,0,1,48.75,56.45ZM42.94,9.56a.77.77,0,0,0-.33.06l-9.32,3.57a.93.93,0,0,0-.52.49.94.94,0,0,0,0,.7L47.89,53.85a.92.92,0,0,0,.48.51.88.88,0,0,0,.71,0l9.33-3.57h0a.91.91,0,0,0,.51-.49.9.9,0,0,0,0-.7L43.8,10.15A.91.91,0,0,0,42.94,9.56Z"></path><path d="M45.17,50.55a1,1,0,0,1-.41-.09,1,1,0,0,1-.53-.56L32.68,19.76a1,1,0,0,1,.57-1.29l12.92-4.95a1,1,0,0,1,.76,0,1,1,0,0,1,.53.56L59,44.24A1,1,0,0,1,59,45a1,1,0,0,1-.56.53L45.52,50.48A1,1,0,0,1,45.17,50.55ZM34.9,20,45.74,48.26l11-4.24L46,15.74Z"></path><path d="M48,45.06a1.15,1.15,0,0,1-.41-.08,1,1,0,0,1-.52-.56L38.45,22A1,1,0,0,1,39,20.66L43.33,19a1.08,1.08,0,0,1,.77,0,1,1,0,0,1,.53.56l8.61,22.47a1,1,0,0,1-.57,1.29L48.36,45A1.13,1.13,0,0,1,48,45.06ZM40.68,22.17l7.9,20.6L51,41.83l-7.9-20.6Z"></path></g></svg>