<svg height='300px' width='300px'  fill="white" xmlns="http://www.w3.org/2000/svg" data-name="Layer 1" viewBox="0 0 100 100" x="0px" y="0px"><title>create-collection-icons</title><path d="M82.54,41.69,57.82,17a1.49,1.49,0,0,0-2.12,0L18.82,53.86a1.52,1.52,0,0,0-.44,1.06A1.5,1.5,0,0,0,18.82,56l.93.93-5.3,5.3a1.5,1.5,0,0,0,.9,2.55l3,.33.34,3a1.5,1.5,0,0,0,1,1.25,1.42,1.42,0,0,0,.5.08A1.49,1.49,0,0,0,21.21,69l5.29-5.29,17,17a1.51,1.51,0,0,0,2.13,0L82.54,43.82a1.51,1.51,0,0,0,0-2.13Zm-61.25,23-.12-1.07a1.51,1.51,0,0,0-1.32-1.33l-1.07-.12L21.87,59l2.51,2.52Zm23.3,12.88L22,54.92,56.76,20.16l22.6,22.59ZM56,23.72a1.5,1.5,0,1,1,2.12,2.12L27.69,56.31a1.51,1.51,0,0,1-2.13,0,1.51,1.51,0,0,1,0-2.12Z"></path></svg>