<svg height='300px' width='300px' fill="white" xmlns="http://www.w3.org/2000/svg" xmlns:xlink="http://www.w3.org/1999/xlink" version="1.1" x="0px" y="0px" viewBox="0 0 100 100" enable-background="new 0 0 100 100" xml:space="preserve">

   <defs>
      <path id="pathBook" style="font-size:medium; font-style:normal; font-variant:normal; font-weight:normal; font-stretch:normal; text-indent:0; text-align:start; text-decoration:none; line-height:normal; letter-spacing:normal; word-spacing:normal; text-transform:none; direction:ltr; block-progression:tb; writing-mode:lr-tb; text-anchor:start; baseline-shift:baseline; opacity:1; color:white; fill-opacity:1; stroke:none; stroke-width:6; marker:none; visibility:visible; display:inline; overflow:visible; enable-background:accumulate; font-family:Sans; -inkscape-font-specification:Sans" d="M 25.6875 15 C 21.114147 15 17.131874 15.77575 13.03125 17.15625 A 3.0003 3.0003 0 0 0 11 20 L 11 26 C 8.4892241 26.93515 6.0198703 28.054874 3.59375 29.34375 A 3.0003 3.0003 0 0 0 2 32 L 2 82 A 3.0003 3.0003 0 0 0 6.40625 84.625 C 13.211275 81.0098 20.163674 78.9451 26.96875 79 A 3.0003 3.0003 0 0 0 27 79 C 35.342306 79 43.020703 81.2099 47.59375 83.625 A 3.0003 3.0003 0 0 0 49 84 L 51 84 A 3.0003 3.0003 0 0 0 52.40625 83.625 C 56.970916 81.2143 64.650721 79.03125 73 79.03125 A 3.0003 3.0003 0 0 0 73.03125 79.03125 C 79.836326 78.97625 86.788725 81.04115 93.59375 84.65625 A 3.0003 3.0003 0 0 0 98 82.03125 L 98 32.03125 A 3.0003 3.0003 0 0 0 96.40625 29.375 C 93.983413 28.087858 91.508561 26.965349 89 26.03125 L 89 20 A 3.0003 3.0003 0 0 0 86.96875 17.15625 C 82.868126 15.77575 78.885853 15 74.3125 15 C 65.350321 15 57.053565 17.893974 50 22.875 C 42.946435 17.893974 34.649679 15 25.6875 15 z M 25.6875 21 C 33.549657 21 40.760548 23.55558 47 28.09375 L 47 69.75 C 40.613712 66.012974 33.380265 64 25.6875 64 C 22.588639 64 19.769867 64.4657 17 65.125 L 17 22.3125 C 19.830013 21.51152 22.524509 21 25.6875 21 z M 74.3125 21 C 77.475491 21 80.169987 21.51152 83 22.3125 L 83 65.125 C 80.230133 64.4657 77.411361 64 74.3125 64 C 66.601714 64 59.401792 66.08645 53 69.84375 L 53 28.1875 C 59.252694 23.6226 66.427453 21 74.3125 21 z M 11 32.5 L 11 69 A 3.0003 3.0003 0 0 0 14.96875 71.84375 C 18.629915 70.61115 21.767347 70 25.6875 70 C 33.532417 70 40.665531 72.352568 46.84375 76.78125 C 41.506692 74.605022 34.628739 73.004398 27.03125 73 L 27 73 C 20.520211 72.953 14.127979 74.5685 8 77.25 L 8 33.90625 C 8.9967836 33.413503 9.9980464 32.943198 11 32.5 z M 89 32.53125 C 89.999483 32.979937 91.00659 33.446327 92 33.9375 L 92 77.28125 C 85.872021 74.59975 79.479789 72.98425 73 73.03125 C 72.98961 73.03135 72.97914 73.03125 72.96875 73.03125 C 65.3593 73.039727 58.471317 74.635754 53.125 76.8125 C 59.311391 72.367331 66.452592 70 74.3125 70 C 78.232653 70 81.370085 70.61115 85.03125 71.84375 A 3.0003 3.0003 0 0 0 89 69 L 89 32.53125 z "></path>
   </defs>

   <g>
      <g transform="translate(1, 35) scale(0.35)">
         <use xlink:href="#pathBook"/>
      </g>
      <g transform="translate(64, 8) scale(0.35)">
         <use xlink:href="#pathBook"/>
      </g>
      <g transform="translate(64, 61) scale(0.35)">
         <use xlink:href="#pathBook"/>
      </g>
   </g>

   <path d="M48.578,51.998h-9.099c-0.182,0-0.327,0.146-0.327,0.328v2.627c0,0.182,0.146,0.329,0.327,0.329h9.097  c0.192,0,0.35,0.156,0.348,0.349l-0.008,25.933c0,0.192,0.157,0.349,0.35,0.348L60.818,81.9c0.181,0,0.329-0.147,0.327-0.328  l-0.002-2.628c0-0.182-0.146-0.328-0.327-0.328l-8.097,0.009c-0.192,0-0.35-0.156-0.35-0.349V29.087c0-0.191,0.157-0.348,0.35-0.348  h7.633c0.192,0,0.348-0.155,0.348-0.349v-2.604c0-0.192-0.155-0.349-0.348-0.349l-11.089-0.002  c-0.192-0.001-0.348,0.154-0.348,0.347l0.01,25.867C48.926,51.842,48.771,51.998,48.578,51.998z"></path>

</svg>