<svg height='300px' width='300px' fill="white" xmlns="http://www.w3.org/2000/svg" data-name="Layer 1" viewBox="0 0 100 100" x="0px" y="0px">

   <g transform="scale(1.28) translate(-11,-11)">
      <path d="M68.41,88.32a11,11,0,0,0,11-11V33.55a2,2,0,0,0-.63-1.46L57.71,12.22a2,2,0,0,0-1.37-.54H31.59a11,11,0,0,0-11,11V77.32a11,11,0,0,0,11,11Zm-10.08-70,14,13.24h-14Zm-33.75,59V22.68a7,7,0,0,1,7-7H54.33V33.55a2,2,0,0,0,2,2H75.41V77.32a7,7,0,0,1-7,7H31.59A7,7,0,0,1,24.59,77.32Z"></path>

      <path d="M33.87,49.62h18a2,2,0,0,0,0-4h-18a2,2,0,0,0,0,4Z"></path>

      <path d="M33.87,61.49H66.13a2,2,0,0,0,0-4H33.87a2,2,0,0,0,0,4Z"></path>

      <path d="M33.87,73.36H66.13a2,2,0,0,0,0-4H33.87a2,2,0,0,0,0,4Z"></path>
   </g>

</svg>