<svg height='300px' width='300px'  fill="white" xmlns="http://www.w3.org/2000/svg" xmlns:xlink="http://www.w3.org/1999/xlink" version="1.1" x="0px" y="0px" viewBox="0 0 100 100" style="enable-background:new 0 0 100 100;" xml:space="preserve"><style type="text/css">
	.st0{fill:none;stroke:#000000;stroke-width:4;stroke-linecap:round;stroke-miterlimit:10;}
</style><g><path d="M71.3,35.3L59.8,23.9c-0.6-0.6-1.3-0.9-2.1-0.9H37.9c-2.2,0-4,1.8-4,4v40c0,2.2,1.8,4,4,4h30.3c2.2,0,4-1.8,4-4V37.4   C72.1,36.6,71.8,35.9,71.3,35.3z M60.1,29.8l5.2,5.2h-5.2V29.8z M37.9,67V27h18.3v8c0,2.2,1.8,4,4,4h8l0,28H37.9z"></path><path d="M62.1,73H33.9c-1.1,0-2-0.9-2-2V33c0-1.1-0.9-2-2-2s-2,0.9-2,2v38c0,3.3,2.7,6,6,6h28.3c1.1,0,2-0.9,2-2S63.2,73,62.1,73z"></path><path d="M43,48.8h10c1.1,0,2-0.9,2-2s-0.9-2-2-2H43c-1.1,0-2,0.9-2,2S41.9,48.8,43,48.8z"></path><path d="M43,54.8h18c1.1,0,2-0.9,2-2s-0.9-2-2-2H43c-1.1,0-2,0.9-2,2S41.9,54.8,43,54.8z"></path><path d="M61,56.8H43c-1.1,0-2,0.9-2,2s0.9,2,2,2h18c1.1,0,2-0.9,2-2S62.1,56.8,61,56.8z"></path></g></svg>