<svg height='300px' width='300px'  fill="white" xmlns:dc="http://purl.org/dc/elements/1.1/" xmlns:cc="http://creativecommons.org/ns#" xmlns:rdf="http://www.w3.org/1999/02/22-rdf-syntax-ns#" xmlns:svg="http://www.w3.org/2000/svg" xmlns="http://www.w3.org/2000/svg" xmlns:sodipodi="http://sodipodi.sourceforge.net/DTD/sodipodi-0.dtd" xmlns:inkscape="http://www.inkscape.org/namespaces/inkscape" version="1.1" x="0px" y="0px" viewBox="0 0 100 100"><g transform="translate(0,-952.36218)"><g transform="matrix(-1,0,0,1,2215.2158,1070)" style="" fill="white"><path transform="translate(0,-1147.6378)" d="m 2123,1043 c -2.3862,0 -4,2.0796 -4,4.125 l 0,65.7188 c 0,2.0453 1.6138,4.1562 4,4.1562 l 12,0 c 2.3862,0 4,-2.1109 4,-4.1562 l 0,-65.7188 c 0,-2.0454 -1.6138,-4.125 -4,-4.125 l -12,0 z m 44,0 c -2.3862,0 -4,2.0796 -4,4.125 l 0,65.7188 c 0,2.0453 1.6138,4.1562 4,4.1562 l 12,0 c 2.3862,0 4,-2.1109 4,-4.1562 l 0,-65.7188 c 0,-2.0454 -1.6138,-4.125 -4,-4.125 l -12,0 z m -42,6 8,0 0,8 -8,0 0,-8 z m 44,0 8,0 0,8 -8,0 0,-8 z m -24,2 c -2.1641,0 -4,1.8359 -4,4 l 0,58 c 0,2.1641 1.8359,4 4,4 l 12,0 c 2.1641,0 4,-1.8359 4,-4 l 0,-58 c 0,-2.1641 -1.8359,-4 -4,-4 l -12,0 z m 2,6 8,0 0,6 -8,0 0,-6 z m -22,6 8,0 0,34 -8,0 0,-34 z m 44,0 8,0 0,34 -8,0 0,-34 z m -22,6 8,0 0,30 -8,0 0,-30 z m -22,34 8,0 0,8 -8,0 0,-8 z m 44,0 8,0 0,8 -8,0 0,-8 z m -22,2 8,0 0,6 -8,0 0,-6 z" style="text-indent:0;text-transform:none;direction:ltr;block-progression:tb;baseline-shift:baseline;color:whit;enable-background:accumulate;" fill="white" fill-opacity="1" stroke="none" marker="none" visibility="visible" display="inline" overflow="visible"></path><path d="m 2186.3534,-89.868212 c -2.025,0.338564 -3.6713,2.297974 -3.3011,4.512338 l 8.6008,51.442263 c 0.3702,2.214462 2.5696,3.562543 4.5946,3.223979 l 11.8357,-1.978844 c 2.025,-0.338564 3.6661,-2.328747 3.2959,-4.543209 l -8.6008,-51.442263 c -0.3702,-2.214364 -2.5644,-3.531672 -4.5894,-3.193108 l -11.8357,1.978844 z m 2.9621,5.588051 7.8905,-1.31923 0.9894,5.917858 -7.8905,1.31923 -0.9894,-5.917858 z m 1.9788,11.835716 7.8905,-1.31923 3.9577,23.671432 -7.8905,1.31923 -3.9577,-23.671432 z m 4.9471,29.58929 7.8905,-1.31923 0.9894,5.917858 -7.8905,1.31923 -0.9894,-5.917858 z" style="text-indent:0;text-transform:none;direction:ltr;block-progression:tb;baseline-shift:baseline;color:whit;enable-background:accumulate;" fill="white" fill-opacity="1" stroke="none" marker="none" visibility="visible" display="inline" overflow="visible"></path></g></g></svg>