<svg height='300px' width='300px'  fill="white" xmlns:dc="http://purl.org/dc/elements/1.1/" xmlns:cc="http://creativecommons.org/ns#" xmlns:rdf="http://www.w3.org/1999/02/22-rdf-syntax-ns#" xmlns:svg="http://www.w3.org/2000/svg" xmlns="http://www.w3.org/2000/svg" xmlns:sodipodi="http://sodipodi.sourceforge.net/DTD/sodipodi-0.dtd" xmlns:inkscape="http://www.inkscape.org/namespaces/inkscape" version="1.1" x="0px" y="0px" viewBox="0 0 100 100">
   <g transform="scale(1.125) translate(-5.5, -5.5)">
      <g transform="translate(0,-952.36218)">
         <path d="
            m 52.735746,974.36438
            a 1.9995901,2.0001213 0 0 0 -0.718531,0.24999
            l -40.987499,22.9991
            a 1.9995901,2.0001213 0 0 0 -0.156202,0.12499
            a 1.9995901,2.0001213 0 0 0 -0.03124,0.0312
            c -1.242144,0.45487 -2.3259301,1.26656 -3.0928066,2.34374
            C 6.5631042,1001.7796 6,1003.958 6,1006.3631
            c 0,4.7367 2.1414329,8.1852 5.060956,9.7496
            a 1.9995901,2.0001213 0 0 0 0.218684,0.094
            l 35.989023,13.9994
            a 1.9995901,2.0001213 0 0 0 1.749467,-0.125
            l 43.986584,-25.999
            a 2.0172103,2.0177461 0 1 0 -2.061871,-3.4686
            l -0.968454,0.5623 
            l 0,-10.37456 
            l 2.999085,-1.71869
            a 1.9995901,2.0001213 0 0 0 -0.468607,-3.6561
            L 53.516758,974.42688
            a 1.9995901,2.0001213 0 0 0 -0.781012,-0.0625
            z

            m 0.499848,4.12484
            l 33.583507,9.46838
            l -39.01935,22.1866
            l -31.021788,-11.21828
            l 36.457631,-20.4367
            z

            m 32.740014,14.56193
            l 0,10.31205
            a 1.9995901,2.0001213 0 0 0 0,0.1875
            l -35.989024,21.2492 0,-11.2808 35.989024,-20.46795
            z

            m -73.852476,8.46845
            l 33.864672,12.2495
            l 0,11.6558
            l -33.052419,-12.8433
            c -1.538731,-0.8247 -2.9366046,-2.6135 -2.9366046,-6.2185
            c 0,-1.7657 0.4365906,-3.1152 0.9996956,-3.9061
            c 0.348258,-0.4892 0.70293,-0.7778 1.124656,-0.9374
            z
            "></path>
      </g>
   </g>
</svg>