<svg height='300px' width='300px' fill="white" xmlns="http://www.w3.org/2000/svg" xmlns:xlink="http://www.w3.org/1999/xlink" version="1.1" x="0px" y="0px" viewBox="0 0 100 100" style="enable-background:new 0 0 100 100;" xml:space="preserve">
   <style>
      path
      {
         --colour: white;

         fill: var(--colour);
         stroke: var(--colour);
         stroke-width: 1.5px;
      }
   </style>

   <g style="transform: scale(1.2) translate(-8px, -8px)">
      <path d="M40.8071289,71.0830078h-6.4370117c-0.5522461,0-1,0.4472656-1,1s0.4477539,1,1,1h6.4370117c0.5522461,0,1-0.4472656,1-1  S41.359375,71.0830078,40.8071289,71.0830078z"></path><path d="M40.8071289,62.9277344h-6.4370117c-0.5522461,0-1,0.4472656-1,1s0.4477539,1,1,1h6.4370117c0.5522461,0,1-0.4472656,1-1  S41.359375,62.9277344,40.8071289,62.9277344z"></path><path d="M48.546875,73.0830078h6.4375c0.5522461,0,1-0.4472656,1-1s-0.4477539-1-1-1h-6.4375c-0.5522461,0-1,0.4472656-1,1  S47.9946289,73.0830078,48.546875,73.0830078z"></path><path d="M48.546875,64.9277344h6.4375c0.5522461,0,1-0.4472656,1-1s-0.4477539-1-1-1h-6.4375c-0.5522461,0-1,0.4472656-1,1  S47.9946289,64.9277344,48.546875,64.9277344z"></path><path d="M76.184082,15.4462891l-16.3300781,2.9800415V11c0-0.5527344-0.4477539-1-1-1H44.6772461c-0.5522461,0-1,0.4472656-1,1  v10.0585938H31.5V11c0-0.5527344-0.4477539-1-1-1H11c-0.5522461,0-1,0.4472656-1,1v78c0,0.5527344,0.4477539,1,1,1h19.5h14.1772461  h14.1767578c0.5522461,0,1-0.4472656,1-1V29.6747437L70.699707,89.1044922  c0.0883789,0.4824219,0.5087891,0.8203125,0.9829102,0.8203125c0.0595703,0,0.1196289-0.0048828,0.1806641-0.0166016  l17.3330078-3.1630859c0.2607422-0.046875,0.4921875-0.1962891,0.6430664-0.4150391  c0.1508789-0.2177734,0.2084961-0.4873047,0.1611328-0.7480469L77.3476562,16.25  C77.2480469,15.7070312,76.7324219,15.3427734,76.184082,15.4462891z M12,37.0722656h17.5v25.8554688H12V37.0722656z   M29.5,35.0722656H12v-7.0888672h17.5V35.0722656z M12,64.9277344h17.5v7.0888672H12V64.9277344z M29.5,12v10.0585938v3.9248047H12  V12H29.5z M12,74.0166016h17.5V88H12V74.0166016z M31.5,23.0585938h12.1772461V88H31.5V23.0585938z M57.8540039,88H45.6772461  V22.0585938V12h12.1767578V88z M75.5595703,17.5927734l8.0753174,44.2485352L68.269104,64.6456299l-8.0752563-44.2481689  L75.5595703,17.5927734z M85.109375,69.9204712l-15.3658447,2.8041992l-1.1154785-6.1121826l15.3657837-2.8042603  L85.109375,69.9204712z M72.487793,87.7617188L70.102478,74.6915894l15.3658447-2.8042603l2.3851929,13.0697021  L72.487793,87.7617188z"></path>
   </g>

</svg>