<svg height='300px' width='300px'  fill="white" xmlns="http://www.w3.org/2000/svg" xmlns:xlink="http://www.w3.org/1999/xlink" version="1.1" x="0px" y="0px" viewBox="0 0 32 32" style="enable-background:new 0 0 32 32;" xml:space="preserve"><g><path d="M25.503,32H6.501c-1.378,0-2.5-1.121-2.5-2.499V5.227c0-1.378,1.121-2.5,2.5-2.5h19.001c1.378,0,2.499,1.121,2.499,2.5   v24.274C28.002,30.879,26.881,32,25.503,32z M6.501,4.727c-0.275,0-0.5,0.224-0.5,0.5v24.274c0,0.275,0.224,0.499,0.5,0.499h19.001   c0.275,0,0.499-0.224,0.499-0.499V5.227c0-0.275-0.224-0.5-0.499-0.5H6.501z"></path><path d="M10,8C9.448,8,9,7.552,9,7V1c0-0.552,0.448-1,1-1s1,0.448,1,1v6C11,7.552,10.552,8,10,8z"></path><path d="M22,8c-0.553,0-1-0.448-1-1V1c0-0.552,0.447-1,1-1s1,0.448,1,1v6C23,7.552,22.553,8,22,8z"></path><path d="M16,8c-0.552,0-1-0.448-1-1V1c0-0.552,0.448-1,1-1s1,0.448,1,1v6C17,7.552,16.552,8,16,8z"></path><path d="M22,14H10c-0.552,0-1-0.448-1-1s0.448-1,1-1h12c0.553,0,1,0.448,1,1S22.553,14,22,14z"></path><path d="M22,18H10c-0.552,0-1-0.447-1-1c0-0.552,0.448-1,1-1h12c0.553,0,1,0.448,1,1C23,17.553,22.553,18,22,18z"></path><path d="M22,22H10c-0.552,0-1-0.447-1-1s0.448-1,1-1h12c0.553,0,1,0.447,1,1S22.553,22,22,22z"></path><path d="M16,26h-6c-0.552,0-1-0.447-1-1s0.448-1,1-1h6c0.552,0,1,0.447,1,1S16.552,26,16,26z"></path></g></svg>