<svg height='300px' width='300px'  fill="black" xmlns="http://www.w3.org/2000/svg" xmlns:xlink="http://www.w3.org/1999/xlink" version="1.1" x="0px" y="0px" viewBox="0 0 100 100" style="enable-background:new 0 0 100 100;" xml:space="preserve">
   <g>
      <path d="M26.2,54.7l0.2-0.2l4.5-6.9l9.9,22.3c0.2,0.5,0.6,0.9,1.2,1.1c1,0.4,2.2-0.2,2.5-1.2l11.3-32.1l9.4,24   c0.1,0.3,0.3,0.6,0.6,0.8c0.8,0.7,2.1,0.6,2.8-0.2l6-7.1l13.1-1.9l-14.1-2c-0.5-0.1-1,0.1-1.4,0.5L72,52.1l-4.4,5.1l-10.2-26   c-0.2-0.5-0.6-1-1.2-1.2c-1-0.4-2.2,0.2-2.5,1.2L42.4,63.7L33,42.6c-0.2-0.3-0.4-0.6-0.7-0.9c-0.9-0.6-2.2-0.4-2.8,0.6l-6.1,9.2   l-11.1,1.8l12.3,2C25.2,55.4,25.8,55.2,26.2,54.7z"></path>
   </g>
</svg>