<svg height='300px' width='300px'  fill="white" xmlns="http://www.w3.org/2000/svg" data-name="Layer 1" viewBox="0 0 100 100" x="0px" y="0px"><title>Untitled-2-24</title><g data-name="Group"><path data-name="Compound Path" d="M76,54.44,71.78,58.9a.52.52,0,0,0,0,.72l6.6,6.24a.51.51,0,0,1-.35.88H65.79a4.24,4.24,0,0,1-4.23-4.23V55A10.87,10.87,0,0,0,50.69,44.13H29a.8.8,0,0,1-.77-.57,13,13,0,1,0,0,8.29.8.8,0,0,1,.77-.57H50.69A3.74,3.74,0,0,1,54.41,55v7.52A11.38,11.38,0,0,0,65.79,73.9H77.66a.51.51,0,0,1,.36.87l-6.3,6.32a.51.51,0,0,0,0,.72l4.35,4.34a.52.52,0,0,0,.72,0L92.67,70.22a.52.52,0,0,0,0-.73L76.73,54.42A.51.51,0,0,0,76,54.44ZM21.72,47.71a5.85,5.85,0,1,1-1.23-3.58A5.8,5.8,0,0,1,21.72,47.71Z"></path><path data-name="Compound Path" d="M81.92,46.43A13,13,0,1,0,71.31,35.82,13,13,0,0,0,81.92,46.43Zm.85-18.49a5.84,5.84,0,1,1-4.34,4.34A5.77,5.77,0,0,1,82.77,27.94Z"></path><path data-name="Path" d="M37.84,29.72l6.73-6a1,1,0,0,1,1.29,0l6.72,6A1,1,0,0,0,54,29.64l3.49-3.89a1,1,0,0,0-.08-1.36l-6-5.37a1,1,0,0,1,0-1.44l6-5.36a1,1,0,0,0,.08-1.37L54,7a1,1,0,0,0-1.37-.07l-6.72,6a1,1,0,0,1-1.29,0l-6.73-6A1,1,0,0,0,36.47,7L33,10.85a1,1,0,0,0,.07,1.37l6,5.36A1,1,0,0,1,39,19l-6,5.37A1,1,0,0,0,33,25.75l3.48,3.89A1,1,0,0,0,37.84,29.72Z"></path><path data-name="Path" d="M40.11,70.28l-6.72,6a1,1,0,0,1-1.3,0l-6.72-6a1,1,0,0,0-1.37.08l-3.49,3.89a1,1,0,0,0,.08,1.36l6,5.37a1,1,0,0,1,0,1.44l-6,5.36a1,1,0,0,0-.08,1.37L24,93a1,1,0,0,0,1.37.07l6.72-6a1,1,0,0,1,1.3,0l6.72,6A1,1,0,0,0,41.48,93L45,89.15a1,1,0,0,0-.08-1.37l-6-5.36a1,1,0,0,1,0-1.44l6-5.37A1,1,0,0,0,45,74.25l-3.49-3.89A1,1,0,0,0,40.11,70.28Z"></path></g></svg>