<svg height='300px' width='300px'  fill="white" xmlns="http://www.w3.org/2000/svg" xmlns:xlink="http://www.w3.org/1999/xlink" version="1.1" x="0px" y="0px" viewBox="0 0 512 512" style="enable-background:new 0 0 512 512;" xml:space="preserve"><path d="M437.8152771,176.8156891L335.1853943,74.185318c-3.5136719-3.5146484-8.5097656-4.9785156-13.3461914-3.9204102  c-4.8535156,1.0532227-8.7861328,4.465332-10.5200195,9.1308594c-5.8564453,15.7705078-7.2866211,33.4291992-4.1479492,50.2949219  l-99.9062347,88.0180664c-54.1508789-19.2529297-96.7827225,10.5048828-98.6347733,11.8266602  c-3.4736328,2.4863281-5.6660156,6.3544922-6.0136719,10.5932617c-0.359375,4.2636719,1.1713867,8.4453125,4.1987305,11.4726562  l70.4299393,70.4301605L72.5682144,426.708252c-3.5146484,3.5146484-3.5151367,9.2138672,0,12.7285156  c1.7573242,1.7568359,4.0600586,2.6357422,6.3637695,2.6357422c2.3032227,0,4.6069336-0.8789062,6.3637695-2.6357422  l104.6814041-104.6806641l70.427475,70.4267578c2.7373047,2.7392578,6.4199219,4.2539062,10.2446289,4.2539062  c0.4033203,0,0.8085938-0.0166016,1.2138672-0.0507812c4.2563477-0.3505859,8.1230469-2.5419922,10.6308594-6.0449219  c1.5063477-2.1220703,9.2719727-13.6181641,14.2231445-31.5566406c6.137207-22.2333984,5.2841797-45.2958984-2.4272461-67.0458984  l88.0180664-99.906723c16.8725586,3.1484375,34.5366211,1.7138672,50.3041992-4.1552734  c4.6567383-1.7314453,8.065918-5.6635742,9.1162109-10.5024414  C442.7903748,185.3205719,441.3274841,180.325943,437.8152771,176.8156891z M183.2769623,302.6074219l-60.6643143-60.6642914  c10.5361404-6.1992188,43.302742-21.8833008,83.1044998-5.5585938l9.3652344-1.5737305l107.9501801-95.1044922l2.7866211-8.9160156  c-3.2573242-13.1533203-3.0058594-27.1088867,0.6479492-39.8676758l94.6118164,94.6123047  c-12.7558594,3.6611328-26.7094727,3.9111328-39.8642578,0.6484375l-8.9204102,2.7856445l-95.1040039,107.9501801  l-1.5737305,9.3642578c16.277832,39.6865234,0.6152344,72.5449219-5.5585938,83.0966797l-65.2562103-65.2557983"></path></svg>