<svg height='300px' width='300px'  fill="white" xmlns:dc="http://purl.org/dc/elements/1.1/" xmlns:cc="http://creativecommons.org/ns#" xmlns:rdf="http://www.w3.org/1999/02/22-rdf-syntax-ns#" xmlns:svg="http://www.w3.org/2000/svg" xmlns="http://www.w3.org/2000/svg" xmlns:sodipodi="http://sodipodi.sourceforge.net/DTD/sodipodi-0.dtd" xmlns:inkscape="http://www.inkscape.org/namespaces/inkscape" version="1.1" x="0px" y="0px" viewBox="0 0 100 100"><g transform="translate(0,-952.36218)"><path style="text-indent:0;text-transform:none;direction:ltr;block-progression:tb;baseline-shift:baseline;color:white;enable-background:accumulate;" d="m 32,957.39727 c -4.380101,0 -8,3.61848 -8,7.99688 0,4.3784 3.619899,7.99688 8,7.99688 l 0.3125,0 2.40625,22.24133 C 30.959883,996.27587 28,999.45366 28,1003.3793 c 0,4.3784 3.619885,7.9969 8,7.9969 l 5.4375,0 5.59375,33.4557 a 3.0003,2.9991308 0 0 0 5.9375,0 l 5.59375,-33.4557 5.4375,0 c 4.380115,0 8,-3.6185 8,-7.9969 0,-3.92564 -2.959883,-7.10343 -6.71875,-7.74694 l 2.40625,-22.24133 0.3125,0 c 4.380101,0 8,-3.61848 8,-7.99688 0,-4.3784 -3.619899,-7.99688 -8,-7.99688 l -36,0 z m 0,5.99766 36,0 c 1.159931,0 2,0.83974 2,1.99922 0,1.15948 -0.840069,1.99922 -2,1.99922 l -3,0 a 3.0003,2.9991308 0 0 0 -2.96875,2.65522 l -3,27.98908 A 3.0003,2.9991308 0 0 0 62,1001.3801 l 2,0 c 1.159903,0 2,0.8398 2,1.9992 0,1.1595 -0.840083,1.9993 -2,1.9993 l -7.90625,0 -12.40625,0 -7.6875,0 c -1.159917,0 -2,-0.8398 -2,-1.9993 0,-1.1594 0.840097,-1.9992 2,-1.9992 l 2,0 a 3.0003,2.9991308 0 0 0 2.96875,-3.34243 l -3,-27.98908 A 3.0003,2.9991308 0 0 0 35,967.39337 l -3,0 c -1.159931,0 -2,-0.83974 -2,-1.99922 0,-1.15948 0.840069,-1.99922 2,-1.99922 z m 15.5625,47.98127 4.875,0 L 50,1026.058 47.5625,1011.3762 z" fill="white" fill-opacity="1" stroke="none" marker="none" visibility="visible" display="inline" overflow="visible"></path></g></svg>