<svg 
   height='300px' 
   width='300px' 
   fill="white" 
   xmlns:dc="http://purl.org/dc/elements/1.1/" 
   xmlns:cc="http://creativecommons.org/ns#" 
   xmlns:rdf="http://www.w3.org/1999/02/22-rdf-syntax-ns#" 
   xmlns:svg="http://www.w3.org/2000/svg" 
   xmlns="http://www.w3.org/2000/svg" 
   xmlns:sodipodi="http://sodipodi.sourceforge.net/DTD/sodipodi-0.dtd" 
   xmlns:inkscape="http://www.inkscape.org/namespaces/inkscape" 
   xmlns:xlink="http://www.w3.org/1999/xlink"
   version="1.1" 
   x="0px" 
   y="0px" 
   viewBox="0 0 100 100">

   <defs>
      <path id="pathSound" fill="white" transform="translate(-200,-1735) scale(1.35)"
         d="M222.12,1304.413c0-0.743-3.129-1.357-7.179-1.452l-2.238-7.74c-0.174-0.606-0.714-1.03-1.337-1.053  c-0.616-0.01-1.188,0.362-1.406,0.952l-7.357,20.014l-6.552-28.346c-0.153-0.664-0.736-1.131-1.408-1.131c-0.002,0-0.005,0-0.007,0  c-0.673,0.003-1.256,0.478-1.404,1.145l-3.606,16.277l-2.071-4.567c-0.216-0.477-0.668-0.8-1.184-0.847  c-0.512-0.05-1.018,0.188-1.316,0.619l-3.425,4.958c-4.211,0.068-7.51,0.696-7.51,1.459c0,0.803,3.667,1.457,8.202,1.464  c0.476,0.021,0.953-0.195,1.247-0.62l2.41-3.488l2.804,6.188c0.258,0.57,0.846,0.917,1.465,0.847  c0.617-0.066,1.123-0.523,1.26-1.137l3.163-14.278l6.207,26.851c0.146,0.627,0.68,1.088,1.317,1.127  c0.029,0.002,0.062,0.003,0.092,0.003c0.6,0,1.143-0.378,1.355-0.953l7.508-20.428l1.316,4.56c0.203,0.698,0.868,1.121,1.556,1.041  C218.51,1305.862,222.12,1305.213,222.12,1304.413z"
         ></path>
      <path id="pathSoundInner" fill="white" transform="translate(-200,-1735) scale(1.35)"
         d="
         M222.12,1304.413
         c0-0.743-3.129-1.357-7.179-1.452
         l-2.238-7.74
         c-0.174-0.606-0.714-1.03-1.337-1.053  
         c-0.616-0.01-1.188,0.362-1.406,0.952
         l-7.357,20.014
         l-6.552-28.346
         c-0.153-0.664-0.736-1.131-1.408-1.131
         c-0.002,0-0.005,0-0.007,0  
         c-0.673,0.003-1.256,0.478-1.404,1.145
         l-3.606,16.277
         l-2.071-4.567
         c-0.216-0.477-0.668-0.8-1.184-0.847  
         c-0.512-0.05-1.018,0.188-1.316,0.619
         l-3.425,4.958
         c-4.211,0.068-7.51,0.696-7.51,1.459
         c0,0.803,3.667,1.457,8.202,1.464  
         c0.476,0.021,0.953-0.195,1.247-0.62
         l2.41-3.488
         l2.804,6.188
         c0.258,0.57,0.846,0.917,1.465,0.847  
         c0.617-0.066,1.123-0.523,1.26-1.137
         l3.163-14.278
         l6.207,26.851
         c0.146,0.627,0.68,1.088,1.317,1.127  
         c0.029,0.002,0.062,0.003,0.092,0.003
         c0.6,0,1.143-0.378,1.355-0.953
         l7.508-20.428
         l1.316,4.56
         c0.203,0.698,0.868,1.121,1.556,1.041  
         C218.51,1305.862,222.12,1305.213,222.12,1304.413
         z"
         ></path>

      <clipPath id="clipPathSound">
         <rect x="46" y="0" width="44" height="100"/>
      </clipPath>
   </defs>

   <g transform="translate(-19,-951)">
      <g transform="translate(-2214,1883.0003)" style="" fill="white">
         <path 
            d="
               m 2258.9998,-910.63794 
               c -4.934,0 -8.9998,4.06589 -8.9998,9 
               l 0,24.31262 
               c -1.4863,-1.98823 -3.1032,-3.50857 -4.9999,-4.03125 -2.6004,-0.71657 -4.9298,0.2154 -6.4999,1.125 -1.8965,1.50647 -3.553,2.67825 -4.2187,5.0937 -0.6253,2.27855 -0.1636,4.72854 0.9375,7.5625 5.2715,12.6304 11.6573,24.87518 19.5309,33.90625 0.5581,0.64167 1.3995,1.02738 2.2499,1.0313 
               l 26.9995,0 
               c 0.6366,-0.002 1.2707,-0.2136 1.7813,-0.59375 3.1317,-2.32006 5.4709,-6.08072 7.4373,-10.5 1.9665,-4.41928 3.4485,-9.53811 4.2187,-14.53125 0.7702,-4.99314 0.8279,-9.93093 -0.3125,-14 -1.1596,-4.13782 -4.2185,-7.84087 -8.7811,-8.375 -0.7726,-0.022 -1.6051,0.10413 -2.2812,0.1875 -0.588,-1.13021 -1.3785,-2.03782 -2.25,-2.65625 -1.7123,-1.21517 -3.4033,-1.55552 -4.8749,-1.53125 -1.0559,0.0177 -2.015,0.37655 -2.9374,0.875 -0.3693,-0.44074 -0.6669,-1.00249 -1.0938,-1.3125 -1.7075,-1.24005 -3.4618,-1.5625 -4.9061,-1.5625 -0.6837,0 -1.3424,0.10374 -2,0.25 
               l 0,-15.25012 
               c 0,-4.93411 -4.0658,-9 -8.9998,-9 
               z
               m 0,6 
               c 1.7139,0 2.9999,1.28611 2.9999,3 
               l 0,21.00012 
               c -0.01,1.35442 1.0227,2.64333 2.3443,2.93944 1.3217,0.29611 2.8013,-0.43098 3.3744,-1.65819 1.0912,-1.41579 2.2257,-1.38369 3.6562,-0.875 0.3579,0.25995 0.625,0.40927 0.625,1.59375 0,1.34202 1.0043,2.62066 2.3103,2.92924 1.3061,0.30858 2.7802,-0.3835 3.3771,-1.58549 0.78,-1.6193 1.2883,-1.42176 2.6562,-0.90625 0.4101,0.29106 0.6562,0.43508 0.6562,1.5625 0.01,1.15381 0.7458,2.27058 1.8039,2.73065 1.0581,0.46007 2.378,0.23793 3.2273,-0.54315 0.033,0.0663 1.3356,-0.35545 1.8124,-0.1875 1.8589,0.2814 2.7682,1.34199 3.5312,4.03125 0.7905,2.78646 0.8405,7.00153 0.1563,11.4375 -0.6843,4.43597 -2.0883,9.12527 -3.8125,13 -1.5648,3.51666 -3.4482,6.14313 -4.9999,7.53125 
               l -24.2183,0 
               c -5.5931,-7.57441 -18.4973,-27.94873 -18.4372,-34.875 0.8109,-1.33321 2.0739,-2.1981 3.3437,-2.0625 1.5911,0.80298 1.9863,1.6274 2.9375,3.34375 
               l 3.9687,7.9375 
               c 0.5968,1.20199 2.0709,1.89407 3.377,1.58549 1.306,-0.30858 2.3145,-1.58722 2.3104,-2.92924 
               l 0,-36.00012 
               c 0,-1.71389 1.286,-3 2.9999,-3 
               z
               " 
            style="text-indent:0;text-transform:none;direction:ltr;block-progression:tb;baseline-shift:baseline;color:white;enable-background:accumulate;" 
            fill="white" 
            fill-opacity="1" 
            stroke="none" 
            marker="none" 
            visibility="visible" 
            display="inline" 
            overflow="visible"></path>

      </g>
   </g>

   <use clip-path="url(#clipPathSound)" xlink:href="#pathSound" x="0" y="0"/>
   <use clip-path="url(#clipPathSound)" xlink:href="#pathSound" x="0" y="1"/>
   <use clip-path="url(#clipPathSound)" xlink:href="#pathSound" x="0" y="2"/>
   <use xlink:href="#pathSound" x="0" y="3"/>
   <use clip-path="url(#clipPathSound)" xlink:href="#pathSound" x="0" y="4"/>
   <use clip-path="url(#clipPathSound)" xlink:href="#pathSound" x="0" y="5"/>
   <use clip-path="url(#clipPathSound)" xlink:href="#pathSound" x="0" y="6"/>

</svg>