<svg height='300px' width='300px'  fill="white" xmlns="http://www.w3.org/2000/svg" xmlns:xlink="http://www.w3.org/1999/xlink" version="1.1" x="0px" y="0px" viewBox="0 0 100 100" enable-background="new 0 0 100 100" xml:space="preserve"><path fill="white" d="M28.31,82.474c1.213,0,2.465-0.417,3.678-1.213l42.806-26.52c0.033-0.021,0.065-0.042,0.098-0.064  c0.243-0.171,2.371-1.739,2.371-4.202s-2.128-4.031-2.371-4.202c-0.032-0.022-0.064-0.044-0.098-0.064L32.032,19.717  c-1.256-0.825-2.641-1.243-3.854-1.243c-2.512,0-5.178,1.936-5.178,6.261v51.48c0,4.323,2.666,6.259,5.178,6.259H28.31z M27,76.215  v-51.48c0-0.377,0.182-2.261,1.178-2.261c0.237,0,0.816,0.077,1.638,0.615l42.763,26.473c0.31,0.244,0.667,0.68,0.667,0.913  c0,0.236-0.34,0.679-0.636,0.909L29.834,77.888c-0.778,0.51-1.421,0.586-1.658,0.586C27.18,78.474,27,76.592,27,76.215z"></path></svg>