<svg height='300px' width='300px'  fill="white" xmlns="http://www.w3.org/2000/svg" xmlns:xlink="http://www.w3.org/1999/xlink" version="1.1" x="0px" y="0px" viewBox="0 0 100 100" enable-background="new 0 0 100 100" xml:space="preserve"><path d="M31.17,89.607c-2.463,3.013-6.354,3.687-10.225-0.182c-3.519-3.518-2.158-6.952,0.467-9.575l69.413-69.436  c1.428-1.426,2.234-0.792,2.825,0.325c5.493,10.342-6.672,29.354-20.542,43.226c-10.154,10.153-10.866-2.334-17.513,5.793  L31.17,89.607z"></path><path d="M39.729,48.159l4.067,4.578l6.039-6.041l-4.576-4.066c4.485-5.926,2.634-12.27-2.932-16.947L22.185,8.604  c-1.112-0.903-2.224-0.971-3.194,0c-0.973,0.972-0.972,2.226,0,3.195l15.74,15.742c1.026,1.024,1.026,2.348,0,3.371l-0.077,0.077  c-1.024,1.026-2.348,1.026-3.371,0l-15.743-15.74c-0.97-0.971-2.223-0.971-3.194,0c-0.972,0.971-0.972,2.224-0.001,3.195  l15.741,15.741c1.025,1.026,1.025,2.347,0,3.373l-0.077,0.077c-1.024,1.025-2.348,1.025-3.371,0L8.898,21.89  c-0.972-0.968-2.224-0.971-3.195,0.002c-0.97,0.969-0.904,2.081,0.001,3.192L22.78,45.226  C27.459,50.794,33.801,52.643,39.729,48.159z"></path><path d="M86.687,79.438L66.454,61.463c-0.264,0.023-0.525,0.051-0.789,0.051c-1.79,0-3.228-0.545-4.277-0.943  c-0.493-0.188-1.052-0.4-1.288-0.4c-0.006,0-0.586,0.072-1.918,1.701l-3.006,3.674l21.361,24.042  c3.06,3.441,6.701,3.283,10.068-0.084C89.972,86.137,90.129,82.497,86.687,79.438z"></path></svg>