<?xml version="1.0" encoding="UTF-8"?>
<svg width="700px" height="500px" version="1.1" viewBox="0 0 700 500" xmlns="http://www.w3.org/2000/svg">
 <g fill="white">
  <path d="m105 175h71.75c27.84 0.023438 54.527 11.102 74.199 30.801l49.523 49.523h0.003906c4.5039 3.8594 10.656 5.1719 16.344 3.4922 5.6875-1.6836 10.137-6.1328 11.82-11.82 1.6797-5.6875 0.36719-11.84-3.4922-16.348l-49.523-49.523c-26.262-26.188-61.789-40.965-98.875-41.125h-71.75c-6.2539 0-12.031 3.3359-15.156 8.75s-3.125 12.086 0 17.5 8.9023 8.75 15.156 8.75z"/>
  <path d="m523.25 175h29.574l-19.602 19.602h0.003906c-3.7031 3.1719-5.918 7.7422-6.1055 12.613-0.1875 4.875 1.6641 9.6055 5.1133 13.051 3.4453 3.4492 8.1758 5.3008 13.051 5.1133 4.8711-0.1875 9.4414-2.4023 12.613-6.1055l49.523-49.523h0.003906c3.3125-3.2852 5.1758-7.7578 5.1758-12.426 0-4.6641-1.8633-9.1367-5.1758-12.426l-49.527-49.348c-4.5039-3.8594-10.656-5.1719-16.344-3.4922-5.6875 1.6836-10.137 6.1328-11.82 11.82-1.6797 5.6875-0.36719 11.84 3.4922 16.348l19.598 19.773h-29.574c-37.141-0.027344-72.773 14.703-99.051 40.949l-173.25 173.25c-19.672 19.699-46.359 30.777-74.199 30.801h-71.75c-6.2539 0-12.031 3.3359-15.156 8.75s-3.125 12.086 0 17.5 8.9023 8.75 15.156 8.75h71.75c37.141 0.027344 72.773-14.703 99.051-40.949l173.25-173.25c19.672-19.699 46.359-30.777 74.199-30.801z"/>
  <path d="m611.1 395.85c-0.88672-2.1641-2.1953-4.1289-3.8516-5.7773l-49.523-49.523c-4.5078-3.8594-10.66-5.1719-16.348-3.4922-5.6875 1.6836-10.137 6.1328-11.82 11.82-1.6797 5.6875-0.36719 11.84 3.4922 16.348l19.773 19.773h-29.574c-27.84-0.023438-54.527-11.102-74.199-30.801l-49.523-49.523h-0.003906c-4.5039-3.8594-10.656-5.1719-16.344-3.4922-5.6875 1.6836-10.137 6.1328-11.82 11.82-1.6797 5.6875-0.36719 11.84 3.4922 16.348l49.523 49.523c26.262 26.188 61.789 40.965 98.875 41.125h29.574l-19.602 19.602h0.003906c-3.7031 3.1719-5.918 7.7422-6.1055 12.613-0.1875 4.875 1.6641 9.6055 5.1133 13.051 3.4453 3.4492 8.1758 5.3008 13.051 5.1133 4.8711-0.1875 9.4414-2.4023 12.613-6.1055l49.523-49.523h0.003906c2.457-2.4414 4.1328-5.5586 4.8203-8.9531 0.68359-3.3945 0.34766-6.918-0.97266-10.121z"/>
 </g>
</svg>
