<svg height='300px' width='300px'  fill="white" xmlns="http://www.w3.org/2000/svg" xmlns:xlink="http://www.w3.org/1999/xlink" version="1.1" x="0px" y="0px" viewBox="0 0 512 512" style="enable-background:new 0 0 512 512;" xml:space="preserve"><g><g><path d="M454.392,93.868c-1.753-1.317-3.837-2.014-6.028-2.014c-2.52,0-4.929,0.937-6.784,2.638l-38.81,35.579    c-1.851,1.697-4.674,1.758-6.597,0.142c-44.169-37.134-97.56-57.585-150.337-57.585c-72.501,0-130.458,39.548-156.974,106.394    c20.566-24.697,47.726-37.201,80.89-37.201c53.302,0,111.354,33.452,147.908,64.758c1.022,0.875,1.648,2.125,1.737,3.468    s-0.367,2.664-1.266,3.667l-34.713,38.739c-3.218,3.591-3.455,9-0.565,12.862c1.907,2.548,4.946,4.068,8.129,4.068h151.921    c4.145,0,8.04-1.616,10.969-4.551c2.917-2.925,4.524-6.812,4.524-10.943V101.89C458.396,98.752,456.899,95.753,454.392,93.868z"></path><path d="M342.258,370.186c-53.325,0.003-111.374-33.453-147.919-64.765c-1.021-0.875-1.646-2.125-1.735-3.468    s0.367-2.664,1.266-3.666l34.712-38.739c3.218-3.592,3.456-9.001,0.565-12.862c-1.907-2.548-4.945-4.069-8.128-4.069H69.097    c-4.145,0-8.04,1.616-10.969,4.551c-2.918,2.925-4.524,6.811-4.524,10.942v152c0,3.138,1.497,6.137,4.006,8.022    c1.752,1.317,3.837,2.014,6.027,2.014c2.52,0,4.929-0.938,6.784-2.639l38.81-35.579c0.954-0.874,2.166-1.314,3.38-1.314    c1.142,0,2.285,0.39,3.218,1.173c44.157,37.135,97.543,57.585,150.324,57.585c72.489,0,130.441-39.532,156.967-106.347    C402.556,357.695,375.406,370.185,342.258,370.186z"></path></g></g></svg>