<svg height='300px' width='300px'  fill="white" xmlns="http://www.w3.org/2000/svg" xmlns:xlink="http://www.w3.org/1999/xlink" version="1.1" x="0px" y="0px" viewBox="0 0 100 100" enable-background="new 0 0 100 100" xml:space="preserve"><path d="M66.545,12.376C59.311,5.143,49.691,1.158,39.461,1.158c-10.231,0-19.85,3.985-27.084,11.218  C5.141,19.61,1.158,29.23,1.158,39.462s3.982,19.849,11.219,27.085c7.234,7.233,16.853,11.219,27.084,11.219  c10.23,0,19.85-3.985,27.086-11.219C81.48,51.61,81.48,27.311,66.545,12.376z M58.193,58.191  c-5.003,5.004-11.654,7.759-18.731,7.759s-13.728-2.755-18.729-7.757c-5.004-5.005-7.759-11.657-7.759-18.731  c0-7.075,2.755-13.727,7.759-18.731c5.003-5.002,11.655-7.757,18.729-7.757s13.727,2.755,18.729,7.757  C68.52,31.058,68.52,47.863,58.193,58.191z M97.111,88.758L77.29,68.94c-2.305-2.308-6.048-2.308-8.353,0  c-2.307,2.305-2.307,6.045,0,8.353l19.82,19.818c1.153,1.153,2.666,1.73,4.177,1.73c1.512,0,3.022-0.577,4.177-1.73  C99.419,94.804,99.419,91.063,97.111,88.758z"></path></svg>