<svg height='300px' width='300px'  fill="white" xmlns="http://www.w3.org/2000/svg" xmlns:xlink="http://www.w3.org/1999/xlink" version="1.1" x="0px" y="0px" viewBox="0 0 100 100" style="enable-background:new 0 0 100 100;" xml:space="preserve"><path d="M36.6,66.8c-0.2,0-0.5,0-0.7,0c-7.9-0.2-15.3-3.4-20.7-9.2C3.9,45.8,4.3,27,16.2,15.7C28,4.4,46.8,4.9,58,16.7l0,0  c5.5,5.7,8.4,13.2,8.2,21.1C66,45.7,62.8,53.1,57,58.5C51.5,63.9,44.3,66.8,36.6,66.8z M36.6,13.5c-5.9,0-11.7,2.2-16.3,6.5  c-9.4,9-9.8,24-0.8,33.4c4.4,4.6,10.2,7.2,16.5,7.3s12.3-2.2,16.9-6.5c4.6-4.4,7.2-10.2,7.3-16.5S58,25.4,53.7,20.8l0,0  C49.1,16,42.8,13.5,36.6,13.5z"></path><path d="M54.2,32.5c-0.8,0-1.6-0.5-1.9-1.3c-0.8-2.1-2-4-3.6-5.7c-5.3-5.6-13.7-6.8-20.4-3.1c-1,0.5-2.2,0.2-2.7-0.8  s-0.2-2.2,0.8-2.7c8.3-4.6,18.6-3,25.2,3.8c1.9,2,3.4,4.4,4.4,7c0.4,1-0.1,2.2-1.2,2.6C54.7,32.4,54.5,32.5,54.2,32.5z"></path><path d="M64.9,60.6l-6.2,5.9c-1,0.9-2.5,0.9-3.4-0.1l-0.5-0.5c-0.9-1-0.9-2.5,0.1-3.4l6.2-5.9c1-0.9,2.5-0.9,3.4,0.1l0.5,0.5  C65.9,58.1,65.8,59.7,64.9,60.6z"></path><path d="M90.2,87.5l-5.7,5.4c-1.1,1-2.7,1.1-3.6,0.2L70.9,81L59.3,70.5c-0.9-0.9-0.7-2.5,0.4-3.6l5.7-5.4c1.1-1,2.7-1.1,3.6-0.2  l10,12.1l11.6,10.5C91.4,84.8,91.3,86.5,90.2,87.5z"></path></svg>