<svg height='300px' width='300px'  fill="white" xmlns="http://www.w3.org/2000/svg" xmlns:xlink="http://www.w3.org/1999/xlink" version="1.1" x="0px" y="0px" viewBox="0 0 20 20" enable-background="new 0 0 20 20" xml:space="preserve"><g><polygon fill="white" points="0,4 2,4 2,2 4,2 4,0 0,0  "></polygon><polygon fill="white" points="16,4 18,4 18,0 14,0 14,2 16,2  "></polygon><rect x="6" y="0" fill="white" width="2" height="2"></rect><rect x="10" y="0" fill="white" width="2" height="2"></rect><polygon fill="white" points="2,14 0,14 0,18 4,18 4,16 2,16  "></polygon><rect x="10" y="16" fill="white" width="2" height="2"></rect><rect x="6" y="16" fill="white" width="2" height="2"></rect><polygon fill="white" points="20,16 18,16 18,14 16,14 16,16 14,16 14,18 16,18 16,20 18,20 18,18 20,18  "></polygon><rect y="10" fill="white" width="2" height="2"></rect><rect y="6" fill="white" width="2" height="2"></rect><rect x="16" y="10" fill="white" width="2" height="2"></rect><rect x="16" y="6" fill="white" width="2" height="2"></rect></g></svg>