<svg height='300px' width='300px'  fill="white" xmlns="http://www.w3.org/2000/svg" data-name="Layer 1" viewBox="0 0 512 512" x="0px" y="0px"><defs><style>.cls-1{fill:none;}</style></defs><title>setting</title><path class="cls-1" d="M79.73,387.4A18,18,0,0,0,104.28,394l33.66-19.42,9.91,8.48a166,166,0,0,0,52,30.14l12.11,4.4v38.79c0,10,8.62,18.64,18.33,18.64h51.33c9.72,0,18.34-8.59,18.34-18.64V417.57l12.11-4.4A165.51,165.51,0,0,0,364.05,383l10-8.49L407.68,394a18,18,0,0,0,24.57-6.58l25.67-44.45a18,18,0,0,0-6.58-24.56L417.74,299l2.34-12.86a168.36,168.36,0,0,0,0-60.25L417.74,213l33.6-19.4a18,18,0,0,0,6.58-24.56L432.26,124.6A18,18,0,0,0,407.72,118l-33.66,19.42L364.15,129a166,166,0,0,0-52-30.14L300,94.43V55.64c0-10-8.62-18.64-18.34-18.64H230.33C220.62,37,212,45.59,212,55.64V94.43l-12.11,4.4A165.52,165.52,0,0,0,147.95,129l-10,8.49L104.32,118a18,18,0,0,0-24.57,6.58L54.08,169.06a18,18,0,0,0,6.58,24.56L94.26,213l-2.34,12.86a168.39,168.39,0,0,0,0,60.25L94.26,299l-33.6,19.4a18,18,0,0,0-6.59,24.56ZM256,145.52A110.48,110.48,0,1,1,145.52,256,110.6,110.6,0,0,1,256,145.52Z"></path><path class="cls-1" d="M256,329.38A73.38,73.38,0,1,0,182.62,256,73.46,73.46,0,0,0,256,329.38Z"></path><path d="M16.44,319.7a54.72,54.72,0,0,0,5.5,41.8l25.66,44.45a55.15,55.15,0,0,0,75.23,20.17l11.25-6.57A219.48,219.48,0,0,0,175,443.27v13.1C175,487,200,512,230.33,512h51.33C312,512,337,487,337,456.36v-13.1a219.46,219.46,0,0,0,40.91-23.73l11.3,6.57a55.1,55.1,0,0,0,75.21-20.16l25.65-44.45a55.15,55.15,0,0,0-20.18-75.24l-11.36-6.56a205.52,205.52,0,0,0,0-47.39l11.36-6.56a55.14,55.14,0,0,0,20.16-75.24l-25.66-44.45a55.14,55.14,0,0,0-75.23-20.17l-11.24,6.57A219.46,219.46,0,0,0,337,68.73V55.64C337,25,312,0,281.66,0H230.33C200,0,175,25,175,55.64v13.1a219.47,219.47,0,0,0-40.91,23.73l-11.31-6.57A55,55,0,0,0,47.6,106.05L21.94,150.5A55.15,55.15,0,0,0,42.1,225.75l11.36,6.56a205.56,205.56,0,0,0,0,47.39l-11.36,6.56A54.72,54.72,0,0,0,16.44,319.7Zm44.21-1.31L94.26,299l-2.34-12.86a168.39,168.39,0,0,1,0-60.25L94.26,213l-33.6-19.4a18,18,0,0,1-6.58-24.56L79.75,124.6A18,18,0,0,1,104.32,118L138,137.45l10-8.49a165.52,165.52,0,0,1,51.94-30.14L212,94.43V55.64c0-10,8.62-18.64,18.33-18.64h51.33C291.38,37,300,45.59,300,55.64V94.43l12.11,4.4a166,166,0,0,1,52,30.14l9.91,8.48L407.72,118a18,18,0,0,1,24.54,6.58l25.66,44.45a18,18,0,0,1-6.58,24.56L417.74,213l2.34,12.86a168.36,168.36,0,0,1,0,60.25L417.74,299l33.6,19.4a18,18,0,0,1,6.58,24.56L432.25,387.4A18,18,0,0,1,407.68,394L374,374.55l-10,8.49a165.51,165.51,0,0,1-51.94,30.14L300,417.57v38.79c0,10-8.62,18.64-18.34,18.64H230.33c-9.72,0-18.33-8.59-18.33-18.64V417.57l-12.11-4.4a166,166,0,0,1-52-30.14l-9.91-8.48L104.28,394a18,18,0,0,1-24.55-6.58L54.07,342.95A18,18,0,0,1,60.66,318.38Z"></path><path d="M256,366.48A110.48,110.48,0,1,0,145.52,256,110.6,110.6,0,0,0,256,366.48Zm0-183.85A73.38,73.38,0,1,1,182.62,256,73.46,73.46,0,0,1,256,182.62Z"></path></svg>