<svg height='300px' width='300px'  fill="white" xmlns="http://www.w3.org/2000/svg" xmlns:xlink="http://www.w3.org/1999/xlink" version="1.1" x="0px" y="0px" viewBox="0 0 22 31" style="enable-background:new 0 0 22 31;" xml:space="preserve"><g><path d="M20,13h-7v-1h3.999L22,7l-5.001-5H13V0H9v2H2C0.896,2,0,2.896,0,4v6c0,1.104,0.896,2,2,2h7v1H5.001L0,18l5.001,5H9v6H6   c-1.104,0-2,0.896-2,2h14c0-1.104-0.896-2-2-2h-3v-6h7c1.104,0,2-0.896,2-2v-6C22,13.896,21.104,13,20,13z M2,4h14.171l3,3l-3,3H2   V4z M20,21H5.829l-3-3l3-3H20V21z"></path></g></svg>