<svg height='300px' width='300px'  fill="white" xmlns="http://www.w3.org/2000/svg" xmlns:xlink="http://www.w3.org/1999/xlink" version="1.1" x="0px" y="0px" viewBox="0 0 90 90" style="enable-background:new 0 0 90 90;" xml:space="preserve"><path d="M36.0683594,37.9953613v5.9682617l-21.0585938,1.4187012v13.2402344l21.0585938,1.4187012V77.996582h-6.5546875v2  h23.3974609v-2h-6.5546875V60.734375L68.875,62.2514648l8.7675781-10.2490234L68.875,41.753418l-22.5185547,1.5170898v-7.2579956  l22.3867188-4.3147583l5.8642578-12.1455078l-11.0888672-7.6767578l-17.1621094,5.7822876v-2.5103149  c0-2.8364258-2.3076172-5.144043-5.1435547-5.144043c-2.8369141,0-5.1445313,2.3076172-5.1445313,5.144043v5.9766235  L12.3574219,29.112793l3.3740234,12.8022461L36.0683594,37.9953613z M44.3564453,77.996582h-6.2880859V60.1760254  l6.2880859,0.423645V77.996582z M68.0078125,43.815918l7.0019531,8.1865234l-7.0019531,8.1865234l-50.9980469-3.4365234v-9.5  L68.0078125,43.815918z M38.0683594,43.8288574v-6.2189331l6.2880859-1.2119751v7.0072632L38.0683594,43.8288574z   M38.0683594,15.1474609c0-1.7333984,1.4101563-3.144043,3.1445313-3.144043c1.7333984,0,3.1435547,1.4106445,3.1435547,3.144043  v3.1841431l-6.2880859,2.1185913V15.1474609z M63.2060547,14.0913086L72.0625,20.2231445l-4.6845703,9.7011719  l-50.1894531,9.6733398l-2.4208984-9.1865234L63.2060547,14.0913086z"></path></svg>