<svg height='300px' width='300px'  fill="white" xmlns="http://www.w3.org/2000/svg" xmlns:xlink="http://www.w3.org/1999/xlink" version="1.1" x="0px" y="0px" viewBox="0 0 100 100" enable-background="new 0 0 100 100" xml:space="preserve">

   <path 
      d="
         M95.918,25.51
         h-48.98
         c-4.082,0-4.082,0-4.082,4.082
         v1
         c0,4.082,0,4.082,4.082,4.082
         h48.98
         c4.082,0,4.082,0,4.082-4.082  
         v-1
         C100,25.51,100,25.51,95.918,25.51
         z

         M95.918,65.245
         h-48.98
         c-4.082,0-4.082,0-4.082,4.082
         v1
         c0,4.082,0,4.082,4.082,4.082  
         h48.98
         c4.082,0,4.082,0,4.082-4.082
         v-1
         C100,65.245,100,65.245,95.918,65.245
         z 

         M95.918,86.735
         h-48.98  
         c-4.082,0-4.082,0-4.082,4.082
         v1
         c0,4.082,0,4.082,4.082,4.082
         h48.98
         c4.082,0,4.082,0,4.082-4.082
         v-1 
         C100,86.735,100,86.735,95.918,86.735
         z 

         M95.918,3
         h-48.98
         c-4.082,0-4.082,0-4.082,4.082
         v1
         c0,4.082,0,4.082,4.082,4.082
         h48.98  
         c4.082,0,4.082,0,4.082-4.082
         v-1
         C100,3,100,3,95.918,3
         z 

         M22.449,1.02
         h-8.163
         L0,37.755
         h10.204
         l8.163-24.49
         l8.163,24.49  
         h10.204
         L22.449,1.02
         z 

         M26.531,23.469
         H10.204
         l-2.041,8.163
         h20.408
         L26.531,23.469
         z 

         M32.653,62.245
         H2.041
         v10.204
         h16.327
         l-16.327,20  
         v6.531
         h30.612
         V88.776
         h-15.51
         l15.51-20
         V62.245
         z
         ">
   
   </path></svg>