<svg height='300px' width='300px'  fill="#000000" xmlns:sketch="http://www.bohemiancoding.com/sketch/ns" xmlns="http://www.w3.org/2000/svg" xmlns:xlink="http://www.w3.org/1999/xlink" version="1.1" x="0px" y="0px" viewBox="173.425 1278.935 50 50" enable-background="new 173.425 1278.935 50 50" xml:space="preserve"><path d="M222.12,1304.413c0-0.743-3.129-1.357-7.179-1.452l-2.238-7.74c-0.174-0.606-0.714-1.03-1.337-1.053  c-0.616-0.01-1.188,0.362-1.406,0.952l-7.357,20.014l-6.552-28.346c-0.153-0.664-0.736-1.131-1.408-1.131c-0.002,0-0.005,0-0.007,0  c-0.673,0.003-1.256,0.478-1.404,1.145l-3.606,16.277l-2.071-4.567c-0.216-0.477-0.668-0.8-1.184-0.847  c-0.512-0.05-1.018,0.188-1.316,0.619l-3.425,4.958c-4.211,0.068-7.51,0.696-7.51,1.459c0,0.803,3.667,1.457,8.202,1.464  c0.476,0.021,0.953-0.195,1.247-0.62l2.41-3.488l2.804,6.188c0.258,0.57,0.846,0.917,1.465,0.847  c0.617-0.066,1.123-0.523,1.26-1.137l3.163-14.278l6.207,26.851c0.146,0.627,0.68,1.088,1.317,1.127  c0.029,0.002,0.062,0.003,0.092,0.003c0.6,0,1.143-0.378,1.355-0.953l7.508-20.428l1.316,4.56c0.203,0.698,0.868,1.121,1.556,1.041  C218.51,1305.862,222.12,1305.213,222.12,1304.413z"></path></svg>