<svg height='300px' width='300px'  fill="white" xmlns:x="http://ns.adobe.com/Extensibility/1.0/" xmlns:i="http://ns.adobe.com/AdobeIllustrator/10.0/" xmlns:graph="http://ns.adobe.com/Graphs/1.0/" xmlns="http://www.w3.org/2000/svg" xmlns:xlink="http://www.w3.org/1999/xlink" version="1.1" x="0px" y="0px" viewBox="0 0 100 100" enable-background="new 0 0 100 100" xml:space="preserve"><metadata><sfw xmlns="http://ns.adobe.com/SaveForWeb/1.0/"><slices></slices><sliceSourceBounds width="1449" height="1448" y="-1448.9" x="0.5" bottomLeftOrigin="true"></sliceSourceBounds></sfw></metadata><path d="M28.9,36.2c-1.9-6.7,0.1-7.7,1.8-7.5c-0.3-0.9-0.6-1.8-0.7-2.7h0c-0.6-3.1-0.8-6,0-8.8c0.9-3.7,2.9-6.7,5.1-9  c1.4-1.5,3-2.8,4.8-3.9c1.4-1,2.9-1.8,4.6-2.4l0,0c1.3-0.4,2.7-0.7,4.2-0.8c4.6-0.4,8,0.8,10.5,2.2c3.7,2.1,5.1,4.8,5.1,4.8  S72.9,8.7,70,26c-0.2,0.9-0.4,1.8-0.7,2.7c1.7-0.2,3.7,0.8,1.8,7.5c-1.4,4.9-2.7,6.3-3.6,6.3c-0.9,5.8-5.5,13.2-12.8,15.8  c-3,1.1-6.3,1.1-9.3,0c-7.4-2.6-11.8-10-12.7-15.8C31.6,42.5,30.3,41.1,28.9,36.2z M9.6,89.2c0,0,15.1,9.8,40.4,9.8  c25.3,0,40.4-9.8,40.4-9.8c0.5-2.6,0.9-8.6,0.9-8.6c0.3-4.4-0.1-13.3-7.8-15.3c-10.4-2.6-18.8-8.6-18.8-8.6l-6.6,20.8l-1.2,3.9  l0-0.1l-1.1,3.3l-3.5-9.8c8.5-11.9-1.7-11.8-2.3-11.8c-0.6,0-10.8-0.1-2.3,11.8l-3.5,9.8l-1.1-3.3l0,0.1l-1.2-3.9l-6.6-20.8  c0,0-8.4,5.9-18.8,8.6c-7.7,2-8.1,10.9-7.8,15.3C8.7,80.6,9.2,86.6,9.6,89.2z"></path></svg>