<svg height='300px' width='300px'  fill="white" xmlns="http://www.w3.org/2000/svg" xmlns:xlink="http://www.w3.org/1999/xlink" version="1.1" x="0px" y="0px" viewBox="0 0 100 100" style="enable-background:new 0 0 100 100;" xml:space="preserve"><path d="M12.8,65.4c-1.4,2.3-4.6,13.7-5.1,21c4,1.6,23.5,7.6,42.1,7.6s38.1-6,42.3-7.6c-0.5-7.3-3.7-18.7-5.1-21  c-1.3-2.3-2-3.1-4.7-3.3c-2.3-0.2-13.6-2.3-18.5-4.4c-0.1,5.9-2.3,13.8-2.4,14.6c-0.1,1.1-1.7,6.1-6.6,12.6c0,0-0.4-4.4-0.8-9.7  c-0.4-4-2.9-6.1-2.9-8.2c0-0.5,1.9-1.8,1.9-3.1c0-1.3-0.4-2.6-3.1-2.6s-3.1,1.3-3.1,2.6c0,1.3,1.9,2.6,1.9,3.1  c0,2.1-2.6,4.2-2.9,8.2c-0.4,5.3-0.8,9.7-0.8,9.7c-4.9-6.5-6.5-11.5-6.6-12.6c-0.1-0.7-2.3-8.7-2.4-14.6c-4.9,2.1-16.2,4.2-18.5,4.4  C14.8,62.4,14.1,63.1,12.8,65.4z"></path><path d="M64.1,29.9c0-1-0.1-1.4,0-1.5s1-1.1,1-2s0.5-1.5,0.5-3.2s0-6.1,0-7.2c0-1.2-1.1-0.5-1.1-1.1s-0.7-3.3-4.3-3.3  c0-2.1-2.4-5.5-8.9-5.6c-4.9-0.1-6.5,2.6-10.6,2.5c-0.8,0-2.3-0.5-2.6-1.3c-0.2,1.1,0.4,3.6,1.4,4.4c-3.6,0-4.3,2.7-4.3,3.3  s-1.1,0-1.1,1.1c0,1.2,0,5.5,0,7.2s0.5,2.3,0.5,3.2s0.9,1.9,1,2s0,0.5,0,1.5c-0.1-0.7-1.7-0.9-1.6,0.3s0.4,4.5,0.6,7.2  s1.8,2.3,2.1,2c0,3.6,3,7.3,3,7.3s0,6.4,0,8l8.8,6h2.7l8.8-6c0-1,0-3.6,0-5.6c0,0-3,2.9-10.2,2.9c3.9,0,8.8-3,10.2-5.2  c0,0,3-3.6,3-7.3c0.3,0.3,1.9,0.7,2.1-2c0.3-2.7,0.5-6,0.6-7.2C65.7,29,64.1,29.3,64.1,29.9z"></path></svg>