<svg height='300px' width='300px'  fill="white" xmlns="http://www.w3.org/2000/svg" data-name="Layer 1" viewBox="0 0 100 100" x="0px" y="0px"><title>64</title><path d="M95,41.583a30.73518,30.73518,0,0,0-30.7002-30.7002H35.7002a30.69971,30.69971,0,1,0,0,61.39942H59.51611l22.34278,16.0166a4.27616,4.27616,0,0,0,5.06347-.02344,4.26734,4.26734,0,0,0,1.584-4.79785L83.02148,65.9209A31.18234,31.18234,0,0,0,86.00781,63.29,30.49764,30.49764,0,0,0,95,41.583ZM83.13916,83.06445,61.12354,67.28223H35.7002a25.69971,25.69971,0,1,1,0-51.39942H64.2998a25.72321,25.72321,0,0,1,14.39649,47.002l-1.53613,1.042Z"></path></svg>