<svg height='300px' width='300px'  fill="#000000" xmlns="http://www.w3.org/2000/svg" xmlns:xlink="http://www.w3.org/1999/xlink" version="1.1" x="0px" y="0px" viewBox="0 0 66 66" enable-background="new 0 0 66 66" xml:space="preserve"><g><g><path d="M62,8.3H40.1c-0.5-0.3-1-0.6-1.6-0.8c-0.8-1.1-4.1-5.1-9.9-5.1c-8.6,0-14,8.7-18.9,8.7c-0.9,0-1.4,1.2-0.7,1.8    c0.1,0.1,2.1,1.8,4.6,2.2c-0.7,1.8-1.1,5,1.9,8.4c-0.7,1.4-1.4,4.3,2.2,7.3c0.3,0.9,1.3,3.5,3.1,6c-0.1,1.8-0.2,2.5-0.2,3.2    l-3.1,1.6c-21.2,9.9-10.7,5-13.7,6.4C2.1,48.8,1,50.5,1,52.5v9.1c0,1.1,0.9,2,2,2h52.1c1.1,0,2-0.9,2-2v-9.1    c0-1.9-1.1-3.7-2.9-4.5l-13.7-6.4l-3.1-1.6l-0.2-3.3c0.2-0.3,0.4-0.6,0.6-0.8h13.9l5.3,5.3c0.6,0.6,1.5,0.3,1.7-0.5l0.9-4.7H62    c1.7,0,3-1.4,3-3V11.3C65,9.7,63.6,8.3,62,8.3z M16.2,13.6c-0.6-1.1-1.2,0.2-3.8-1.1c5.9-2.2,9.3-8.1,16.4-8.1    c5.9,0,8.1,4.6,8.8,4.8c2.3,0.9,3.8,2.3,4.3,4.2c0.6,1.9,0.1,4-0.5,5.7c-1-4.1-4-7.1-4.2-7.3c-0.2-0.2-0.6-0.3-0.9-0.3    c-0.3,0.1-0.6,0.3-0.7,0.6c-1.6,3.4-6.6,5.3-9.1,6c0.1-3.6-2.1-4.3-2.6-3c-1.6,4.1-5.2,6.3-6.7,7c-3.5-4-1.1-7.3-1-7.4    C16.3,14.4,16.4,13.9,16.2,13.6z M17.5,24.2c1-0.4,4.5-2.1,6.9-5.9c0,0.3,0,0.6-0.1,1c-0.1,0.7,0.5,1.3,1.2,1.1    c0.3-0.1,7.9-1.7,11.1-6.2c1.3,1.6,3.4,4.9,3,8.4c-0.1,1,1.4,1.2,1.3,3.3c-0.1,2.2-2.4,3.3-2.6,4c-2.1,6.8-7.4,10.5-9.7,10.1    c-6.3-1.2-9.1-10-9.1-10.1C19.4,29.1,15.8,27.2,17.5,24.2z M21.5,41.8l6,7.2L23,51.3l-3.6-8.4L21.5,41.8z M55.1,52.5v9.1H3v-9.1    c0-1.2,0.7-2.2,1.7-2.7l12.8-6l4,9.3c0.2,0.5,0.9,0.8,1.4,0.5l6.1-3.3l6.1,3.3c0.5,0.3,1.2,0.1,1.4-0.5l4-9.3l12.8,6    C54.4,50.2,55.1,51.3,55.1,52.5z M38.7,42.9l-3.6,8.4l-4.5-2.4l6-7.2L38.7,42.9z M35.4,40.1L29,47.7l-6.3-7.6    c0-0.1,0.1-1.1,0.1-1.2c1.7,1.6,4.7,3.4,6.9,3c2.3-0.4,4.1-1.6,5.6-3.1L35.4,40.1z M63,32.8c0,0.6-0.5,1-1,1h-3.4    c-0.5,0-0.9,0.3-1,0.8l-0.7,3.7l-4.2-4.2c-0.2-0.2-0.4-0.3-0.7-0.3H38.9c0.7-1.4,1.1-2.5,1.3-3.1c3.2-2.7,3.4-5.8,1.7-8.1    c0.9-1.6,3.1-5.8,1.9-9.8c-0.3-0.9-0.7-1.8-1.3-2.5H62c0.6,0,1,0.5,1,1V32.8z"></path></g><g><path d="M57,14.6h-4c-0.6,0-1,0.4-1,1c0,0.6,0.4,1,1,1h4c0.6,0,1-0.4,1-1C58,15,57.6,14.6,57,14.6z"></path></g><g><path d="M57,21h-6c-0.6,0-1,0.4-1,1c0,0.6,0.4,1,1,1h6c0.6,0,1-0.4,1-1C58,21.4,57.6,21,57,21z"></path></g><g><path d="M57,27.4H47c-0.6,0-1,0.4-1,1s0.4,1,1,1h10c0.6,0,1-0.4,1-1S57.6,27.4,57,27.4z"></path></g></g></svg>