<svg height='300px' width='300px'  fill="#000000" xmlns="http://www.w3.org/2000/svg" viewBox="0 0 70 70" x="0px" y="0px"><title>Artboard 1 copy 61</title><g data-name="Layer 62"><path d="M61.49,55.94l-.85-5.06a12.69,12.69,0,0,0-8.53-10l-7.58-2.53a1.55,1.55,0,0,1-1.06-1.47v-1a.8.8,0,0,0,0-.15,13.78,13.78,0,0,0,2.09-5.51,3.93,3.93,0,0,0,2.16-2.57,5.25,5.25,0,0,0,.24-2.88c1.67-5.28.82-11.08-1.89-13a11.35,11.35,0,0,0-7.29-6A14.29,14.29,0,0,0,27.11,7.69c-8.29,5.56-6.32,13.66-5,17a5.18,5.18,0,0,0,.21,3,4,4,0,0,0,2.17,2.57,13.88,13.88,0,0,0,2.09,5.52.58.58,0,0,0,0,.14v1a1.53,1.53,0,0,1-1.07,1.47L17.89,40.9a12.66,12.66,0,0,0-8.52,10L8.51,56a4.2,4.2,0,0,0,1,3.37,4.13,4.13,0,0,0,3.14,1.45H30.9l4.17,4.56,4-4.56H57.4a4.13,4.13,0,0,0,3.14-1.45A4.21,4.21,0,0,0,61.49,55.94ZM27.17,39.21l5.56,7.43-.1.72-1.33,1-4.43-8.85A3.73,3.73,0,0,0,27.17,39.21ZM34.31,46,28.2,37.86a9.53,9.53,0,0,0,6.67,3.24h.26a9.58,9.58,0,0,0,6.68-3.25L35.69,46Zm3,.62,5.56-7.42.29.25L38.7,48.32l-1.33-1ZM28,9.06A12.59,12.59,0,0,1,38.31,7.42a9.74,9.74,0,0,1,6.35,5.29l.1.23.22.14c1.81,1.09,2.8,5.6,1.68,10.19a1.69,1.69,0,0,0-1,0c.34-1.88,1.23-8.19-1.91-8.9L43,14.21,42.8,15c-.49,2.11-2,2.25-7.37,2.4l-1.17,0c-3.95.12-9.91.3-9.91,5.22v.65a1.73,1.73,0,0,0-1,0C22.07,19.53,21.46,13.45,28,9.06ZM26,28.47,25,28.7c-.13.07-.78-.45-1.17-1.57a2.82,2.82,0,0,1-.07-2.28s.35.11.71.64L26,27.66v-5c0-2.78,3.05-3.42,8.32-3.58l1.16,0c4.58-.13,7.36-.21,8.53-2.52.63,1.27.48,4.44,0,6.9v4.25l1.5-2.18a1.65,1.65,0,0,1,.68-.65,2.7,2.7,0,0,1,0,2.29c-.39,1.11-1,1.57-1.16,1.57h0l-.94-.23-.08,1c-.43,5.16-4.72,10-8.84,10h-.26c-4.12,0-8.41-4.88-8.84-10ZM10.71,58.26a2.51,2.51,0,0,1-.58-2L11,51.15a11.05,11.05,0,0,1,7.43-8.7l7-2.32L30.7,50.78l1.62-1.17L31,59.13H12.6A2.49,2.49,0,0,1,10.71,58.26Zm24.34,4.61-2.52-2.75L34.2,48s0,0,0-.06l0-.25h1.52l0,.25a.13.13,0,0,1,0,.06l1.67,12.16Zm24.24-4.61a2.49,2.49,0,0,1-1.89.87H39l-1.31-9.52,1.62,1.17,5.33-10.65,7,2.33A11,11,0,0,1,59,51.15l.85,5.06A2.52,2.52,0,0,1,59.29,58.26Z"></path></g></svg>