<svg height='300px' width='300px'  fill="white" xmlns="http://www.w3.org/2000/svg" xmlns:xlink="http://www.w3.org/1999/xlink" version="1.1" x="0px" y="0px" viewBox="0 0 66 66" enable-background="new 0 0 66 66" xml:space="preserve"><g><path d="M58.1,39.7h-5.4c0-1.1,0-2.7,0-2.9c-0.2-3.1-2.5-5.6-5.6-6.1c-2.8-0.5-4.8-1.4-5.1-1.5l-2.2-1.5v-4.3   c2-2.9,2.3-6.3,2.3-6.9c3-6.7,0.5-12.5-2.6-13.8c-4.9-2-11.5-2.9-14.4,1.6C24.9,4.5,20.4,10.4,24,17c0.1,1.2,0.6,3.9,2.2,6.3v4.3   c-1.3,0.7-1.7,2.2-7.3,3.1c-3.1,0.5-5.4,3-5.6,6c0,0.2,0,1.8,0,3H7.9c-0.6,0-1,0.4-1,1v4.8c0,0.6,0.4,1,1,1h1.6V64c0,0.6,0.4,1,1,1   h45.1c0.6,0,1-0.4,1-1V46.5h1.6c0.6,0,1-0.4,1-1v-4.8C59.1,40.2,58.7,39.7,58.1,39.7z M54.5,63H11.5V46.5h43.1V63z M33,31.2   l-4.8-3.6v-2.1c1.5,1.2,3.9,2.3,5.8,1.9c1.6-0.4,2.8-1,3.8-1.8v2.2L33,31.2z M33.5,25.5c-2.3,0.5-6.9-2.3-7.5-8.6   c0.4-4.3,1.1-6,1.4-6.7c3.3,1.2,7.1,0.8,10.5-0.7c0.6,0.5,2,2.2,2.1,6.9c0,0.1,0,0.1,0,0.2C40,17.8,39.3,24.1,33.5,25.5z    M38.8,29.5l1.2,0.8l-3.6,4.4l-1.9-2.1L38.8,29.5z M26.7,5.4c2.4-3.6,8-2.6,12-0.9c1.3,0.5,3.1,3.2,2.6,7.1c-1-3.3-2.7-4.1-3-4.2   c-0.3-0.1-0.5-0.1-0.8,0c-3.9,1.9-7.8,1.7-9.9,0.7C27.4,8,27.2,8,26.9,8c-0.7,0.2-1.6,1.2-2.3,4.3C24.4,8.5,26.6,5.6,26.7,5.4z    M27.2,29.4l4.3,3.2l-1.9,2.2L26,30.3L27.2,29.4z M15.3,37c0.2-2.1,1.8-3.9,3.9-4.2c2.3-0.4,4-1,5-1.4l4.6,5.6   c0.4,0.5,1.1,0.5,1.5,0l2.7-3l2.7,3c0.4,0.5,1.1,0.4,1.5,0l4.6-5.6c0.9,0.4,2.7,1,5,1.4c2.2,0.4,3.8,2.1,3.9,4.3c0,0.2,0,1.5,0,2.8   H15.3C15.3,38.5,15.3,37.2,15.3,37z M57.1,44.5H8.9v-2.8c8.6,0,42.8,0,48.3,0V44.5z"></path></g></svg>