<svg 
   width="300px" 
   height="300px" 
   fill="white" 
   xmlns="http://www.w3.org/2000/svg" 
   xmlns:xlink="http://www.w3.org/1999/xlink" 
   version="1.1" 
   x="0px" 
   y="0px" 
   viewBox="0 0 100 100" 
   enable-background="new 0 0 100 100" 
   xml:space="preserve">

   <style>
      #gScale
      {
         transform: translate(-14px, -13.5px) scale(1.27);
      }
   </style>

   <!--<rect fill="red" x="0px" y="0px" width="100%" height="100%"/>-->

   <g id="gScale">
      <path 
         fill="none" 
         stroke="white" 
         stroke-width="4" 
         stroke-miterlimit="10" 
         d="M190.463,64.599c0,0-6.828-7.723-16.439-4.202  c-9.611,3.519-11.249,13.887-10.767,17.803c0.473,3.836,2.625,13.604,11.922,13.972c9.296,0.37,10.682,0.038,11.351-0.04  c3.164-0.356,13.032-0.188,15.961-0.904c2.751-0.674,18.191-5.856,28.256-18.436c1.26-1.574,0.787-4.175,0.395-5.119  c-0.395-0.947-9.533-24.659-17.333-32.537c-7.798-7.879-7.354-8.499-16.387-11.424c-5.593-1.812-6.774-2.284-7.327-2.206  c-0.551,0.079-5.356,7.091-5.593,7.878c-0.234,0.787-0.551,2.994,0.157,4.491c0.709,1.496,1.65,1.868,2.925,2.493  c0.231,0.113,0.778,0.815,2.985-0.132c2.206-0.944,1.89-1.653,3.071-1.26C194.822,35.37,196.24,36,197.5,36  c1.261,0,1.575-0.709,2.758-0.63c1.182,0.079,5.752,2.915,6.303,5.672c0.552,2.758,0.473,17.806,0.473,17.806  s1.418,5.041,1.732,5.591c0.315,0.553-3.309-3.149-6.459-3.464c-3.152-0.315-5.834-0.368-9.455,1.97  c-1.085,0.7-2.126,1.969-2.126,1.969L190.463,64.599z"></path>
      <g>
         <path 
            fill="none" 
            stroke="white" 
            stroke-width="2" 
            stroke-miterlimit="10" 
            d="M-89.103,151.796   c-3.074,4.508-3.645,9.879-3.312,12.5c0.233,1.867,0.856,5.084,2.429,8.02"></path>
         <path 
            fill="none" 
            stroke="white" 
            stroke-width="2" 
            stroke-miterlimit="10" 
            d="M-89.987,172.315   c1.808,3.379,4.891,6.402,10.106,6.592c9.73,0.359,11.18,0.01,11.896-0.064c3.304-0.393,13.653-0.236,16.713-1.004   c2.879-0.703,19.045-6.182,29.561-19.385c1.322-1.65,0.812-4.375,0.393-5.369c-0.41-0.988-10.043-25.804-18.244-34.042   c-8.186-8.232-7.805-8.674-17.203-11.93c-3.902-1.348-5.999-2.061-7.676-2.293c-1.933-0.258-5.596,7.443-5.842,8.271   c-0.25,0.83-0.574,3.137,0.188,4.707c0.744,1.564,1.727,1.953,3.066,2.602c0.226,0.113,0.809,0.852,3.115-0.145   c2.306-0.996,1.973-1.738,3.217-1.334c1.242,0.416,2.736,1.074,4.051,1.068c1.326,0,1.654-0.748,2.884-0.666   c1.246,0.078,6.035,3.037,6.631,5.924c0.576,2.889,0.545,18.657,0.545,18.657s1.482,5.279,1.818,5.855   c0.336,0.574-3.471-3.289-6.779-3.619c-3.292-0.312-6.111-0.369-9.889,2.096c-1.139,0.736-6.464,6.758-6.464,6.758l3.957-5.016   c0,0-7.176-8.075-17.244-4.367c-3.631,1.35-6.178,3.629-7.916,6.184"></path>
      </g>
      <path 
         fill="none" 
         stroke="white" 
         stroke-width="2" 
         stroke-miterlimit="10" 
         d="M43.814,149.495c0,0-6.717-7.597-16.174-4.135  c-9.457,3.463-11.068,13.664-10.594,17.518c0.465,3.773,2.584,13.385,11.73,13.746c9.146,0.363,10.51,0.037,11.166-0.039  c3.113-0.352,12.822-0.186,15.705-0.891c2.705-0.662,17.898-5.762,27.799-18.139c1.24-1.549,0.775-4.107,0.389-5.037  c-0.389-0.932-9.379-24.261-17.053-32.012c-7.674-7.752-7.236-8.362-16.123-11.239c-5.502-1.783-6.664-2.248-7.207-2.171  s-5.271,6.977-5.504,7.751s-0.543,2.945,0.154,4.419c0.697,1.472,1.623,1.839,2.879,2.453c0.227,0.111,0.766,0.802,2.936-0.129  c2.17-0.93,1.859-1.627,3.023-1.24c1.162,0.388,2.557,1.008,3.797,1.008s1.551-0.697,2.713-0.62  c1.164,0.078,5.658,2.868,6.201,5.581s0.465,17.518,0.465,17.518s1.395,4.961,1.705,5.502c0.311,0.543-3.256-3.1-6.355-3.408  c-3.1-0.311-5.738-0.363-9.301,1.938c-1.068,0.689-2.094,1.938-2.094,1.938L43.814,149.495z"></path>
      <g>
         <path 
            fill="none" 
            d="M83.361,61.532c-2.389-5.984-10.725-26.05-17.661-33.019c-0.953-0.958-1.79-1.812-2.54-2.576   c-5.58-5.686-6.035-6.151-13.9-8.876c-3.452-1.191-5.457-1.871-6.895-2.136c-1.19,1.001-3.596,5.481-4.06,6.823   c-0.195,0.648-0.348,2.356,0.079,3.237c0.398,0.838,0.771,1.017,1.875,1.547l0.264,0.127c0.095,0.047,0.187,0.101,0.289,0.167   c0.14-0.009,0.499-0.062,1.161-0.348c0.763-0.33,1.116-0.595,1.427-0.829c0.758-0.569,1.628-1.084,3.201-0.571   c0.282,0.094,0.559,0.193,0.843,0.295c0.881,0.317,1.88,0.675,2.575,0.675c0.003,0,0.005,0,0.008,0   c0.229,0,0.326-0.039,0.659-0.186c0.498-0.22,1.258-0.552,2.365-0.476c1.967,0.124,7.644,3.577,8.457,7.515   c0.574,2.882,0.589,16.216,0.586,18.787c0.61,2.159,1.355,4.646,1.581,5.183l0.8,1.372l-1.233,1.143   c-1.278,1.108-2.558,0.094-3.105-0.342c-0.92-0.73-3.364-2.671-5.201-2.854c-3.088-0.293-5.364-0.33-8.598,1.78   c-0.648,0.461-3.652,3.687-6.059,6.408l-3.068-2.563l2.824-3.579c-2.23-1.854-7.344-5.086-13.849-2.688   c-2.892,1.074-5.233,2.903-6.954,5.432l-1.653-1.125l1.652,1.127c-2.716,3.982-3.271,8.833-2.98,11.122   c0.195,1.562,0.741,4.589,2.208,7.326l-1.763,0.944l1.764-0.943c1.92,3.59,4.673,5.4,8.416,5.536   c8.657,0.321,10.609,0.071,11.344-0.022l0.273-0.032c1.375-0.164,3.772-0.232,6.547-0.311c3.678-0.105,8.256-0.235,9.886-0.644   c0.181-0.045,17.378-4.749,28.482-18.691c0.648-0.81,0.415-2.633,0.114-3.345L83.361,61.532z"></path>
         <path 
            d="M87.209,60.378l-0.133-0.329c-3.153-7.898-11.273-27.056-18.541-34.356c-0.945-0.951-1.775-1.797-2.52-2.556   c-5.802-5.913-6.693-6.821-15.448-9.855c-4.142-1.429-6.214-2.127-8.063-2.384c-4.093-0.545-7.994,9.581-8.022,9.677   c-0.286,0.948-0.789,3.904,0.296,6.143c0.999,2.101,2.46,2.802,3.749,3.421l0.14,0.067c1.278,0.851,2.836,0.833,4.893-0.055   c1.04-0.45,1.669-0.879,2.073-1.176c0.15,0.053,0.303,0.108,0.459,0.164c1.189,0.427,2.536,0.911,3.92,0.911   c1.082,0.019,1.809-0.314,2.286-0.524c0.277-0.123,0.345-0.147,0.431-0.148c1.126,0.294,4.521,2.687,4.859,4.321   c0.394,1.976,0.519,12.003,0.506,18.262l-0.001,0.277l0.075,0.268c0.059,0.208,0.115,0.409,0.171,0.604   c-0.959-0.451-1.987-0.797-3.018-0.899c-3.565-0.338-6.873-0.392-11.164,2.407c-0.262,0.17-0.648,0.503-1.11,0.941   c-2.632-2.318-9.403-7.022-18.252-3.762c-3.69,1.372-6.675,3.704-8.871,6.932h0c-3.13,4.59-4.083,10.412-3.645,13.875   c0.229,1.835,0.878,5.407,2.649,8.715l0,0l0,0c0,0,0,0.001,0,0.001l0,0c2.577,4.815,6.656,7.459,11.796,7.646   c3.195,0.117,5.521,0.159,7.232,0.159c3.1,0,4.183-0.138,4.764-0.212l0.209-0.024c1.227-0.146,3.652-0.215,6.219-0.288   c4.273-0.122,8.692-0.247,10.733-0.759c4.721-1.153,20.484-7.317,30.646-20.077C88.57,65.217,87.708,61.561,87.209,60.378z    M83.404,65.268C72.3,79.21,55.103,83.914,54.922,83.959c-1.63,0.408-6.208,0.538-9.886,0.644   c-2.775,0.078-5.172,0.146-6.547,0.311l-0.273,0.032c-0.735,0.094-2.687,0.344-11.344,0.022c-3.743-0.136-6.496-1.946-8.416-5.536   l-1.764,0.943l1.763-0.944c-1.466-2.737-2.012-5.764-2.208-7.326c-0.29-2.289,0.265-7.14,2.98-11.122l-1.652-1.127l1.653,1.125   c1.721-2.528,4.062-4.357,6.954-5.432c6.505-2.397,11.619,0.835,13.849,2.688l-2.824,3.579l3.068,2.563   c2.407-2.722,5.41-5.947,6.059-6.408c3.234-2.11,5.51-2.073,8.598-1.78c1.837,0.184,4.281,2.124,5.201,2.854   c0.548,0.436,1.827,1.45,3.105,0.342l1.233-1.143l-0.8-1.372c-0.226-0.536-0.971-3.023-1.581-5.183   c0.003-2.571-0.012-15.905-0.586-18.787c-0.813-3.938-6.49-7.392-8.457-7.515c-1.107-0.076-1.867,0.256-2.365,0.476   c-0.333,0.147-0.43,0.186-0.659,0.186c-0.002,0-0.005,0-0.008,0c-0.695,0-1.693-0.358-2.575-0.675   c-0.284-0.102-0.561-0.201-0.843-0.295c-1.573-0.513-2.443,0.002-3.201,0.571c-0.311,0.234-0.664,0.499-1.427,0.829   c-0.662,0.286-1.021,0.339-1.161,0.348c-0.102-0.067-0.194-0.12-0.289-0.167l-0.264-0.127c-1.104-0.531-1.477-0.709-1.875-1.547   c-0.427-0.88-0.274-2.588-0.079-3.237c0.463-1.342,2.87-5.822,4.06-6.823c1.438,0.265,3.443,0.944,6.895,2.136   c7.865,2.726,8.32,3.19,13.9,8.876c0.75,0.764,1.587,1.617,2.54,2.576c6.937,6.968,15.272,27.034,17.661,33.019l0.157,0.391   C83.819,62.635,84.053,64.458,83.404,65.268z"></path>
      </g>
      <path 
         fill="none" 
         stroke="white" 
         stroke-width="2" 
         stroke-miterlimit="10" 
         d="M44,169.683c7.982,4.25,18.75,0.25,22.5-5.75"></path>
      <path 
         fill="none" 
         stroke="white" 
         stroke-width="2" 
         stroke-miterlimit="10" 
         d="M152.893,151.77c0,0-6.717-7.598-16.174-4.135  s-11.068,13.664-10.594,17.518c0.465,3.773,2.584,13.385,11.73,13.746c9.146,0.363,10.51,0.037,11.166-0.039  c3.113-0.352,12.822-0.186,15.705-0.891c2.705-0.662,17.898-5.762,27.799-18.139c1.24-1.549,0.775-4.107,0.389-5.037  c-0.389-0.932-9.379-24.262-17.053-32.012c-7.674-7.752-7.236-8.363-16.123-11.24c-5.502-1.783-6.664-2.248-7.207-2.17  c-0.543,0.076-5.271,6.977-5.504,7.75c-0.232,0.775-0.543,2.945,0.154,4.42c0.697,1.471,1.623,1.838,2.879,2.453  c0.227,0.111,0.766,0.801,2.936-0.129s1.859-1.627,3.023-1.24c1.162,0.387,2.557,1.008,3.797,1.008s1.551-0.697,2.713-0.621  c1.164,0.078,5.658,2.869,6.201,5.582s0.465,17.518,0.465,17.518s1.395,4.961,1.705,5.502c0.311,0.543-3.256-3.1-6.355-3.408  c-3.1-0.311-5.738-0.363-9.301,1.938c-1.068,0.689-2.094,1.938-2.094,1.938L152.893,151.77z"></path>
   </g>
</svg>