<svg 
   height='300px' 
   width='300px' 
   fill="white" 
   xmlns:dc="http://purl.org/dc/elements/1.1/" 
   xmlns:cc="http://creativecommons.org/ns#" 
   xmlns:rdf="http://www.w3.org/1999/02/22-rdf-syntax-ns#" 
   xmlns:svg="http://www.w3.org/2000/svg" 
   xmlns="http://www.w3.org/2000/svg" 
   xmlns:sodipodi="http://sodipodi.sourceforge.net/DTD/sodipodi-0.dtd" 
   xmlns:inkscape="http://www.inkscape.org/namespaces/inkscape" 
   version="1.1" 
   x="0px" 
   y="0px" 
   viewBox="0 0 100 100">
   
   <g transform="translate(0,-952.36218)">
      <g transform="translate(-2214,1883.0003)" style="" fill="white">
         <path 
            d="
               m 2258.9998,-910.63794 
               c -4.934,0 -8.9998,4.06589 -8.9998,9 
               l 0,24.31262 
               c -1.4863,-1.98823 -3.1032,-3.50857 -4.9999,-4.03125 -2.6004,-0.71657 -4.9298,0.2154 -6.4999,1.125 -1.8965,1.50647 -3.553,2.67825 -4.2187,5.0937 -0.6253,2.27855 -0.1636,4.72854 0.9375,7.5625 5.2715,12.6304 11.6573,24.87518 19.5309,33.90625 0.5581,0.64167 1.3995,1.02738 2.2499,1.0313 
               l 26.9995,0 
               c 0.6366,-0.002 1.2707,-0.2136 1.7813,-0.59375 3.1317,-2.32006 5.4709,-6.08072 7.4373,-10.5 1.9665,-4.41928 3.4485,-9.53811 4.2187,-14.53125 0.7702,-4.99314 0.8279,-9.93093 -0.3125,-14 -1.1596,-4.13782 -4.2185,-7.84087 -8.7811,-8.375 -0.7726,-0.022 -1.6051,0.10413 -2.2812,0.1875 -0.588,-1.13021 -1.3785,-2.03782 -2.25,-2.65625 -1.7123,-1.21517 -3.4033,-1.55552 -4.8749,-1.53125 -1.0559,0.0177 -2.015,0.37655 -2.9374,0.875 -0.3693,-0.44074 -0.6669,-1.00249 -1.0938,-1.3125 -1.7075,-1.24005 -3.4618,-1.5625 -4.9061,-1.5625 -0.6837,0 -1.3424,0.10374 -2,0.25 
               l 0,-15.25012 
               c 0,-4.93411 -4.0658,-9 -8.9998,-9 
               z
               
               " 
            style="text-indent:0;text-transform:none;direction:ltr;block-progression:tb;baseline-shift:baseline;color:white;enable-background:accumulate;" 
            fill="white" 
            fill-opacity="1" 
            stroke="none" 
            marker="none" 
            visibility="visible" 
            display="inline" 
            overflow="visible"></path>

<path d="m 2239.875,-927.76828 -9,9 c -0.5128,0.45447 -0.863,1.34094 -0.875,2.125 0.024,0.80627 0.2317,1.49054 0.875,2.125 l 9,9 c 0.975,1.17669 3.2015,1.12096 4.375,0.125 1.2638,-1.07265 1.0751,-3.29964 -0.1562,-4.375 l -3.875,-3.875 c 11.1875,0 26.3749,0 37.5624,0 l -3.875,3.875 c -1.2315,1.07536 -1.42,3.30235 -0.1562,4.375 1.1735,0.99596 3.3531,1.0595 4.375,-0.125 l 9,-9 c 0.6433,-0.63446 0.8514,-1.31873 0.875,-2.125 -0.012,-0.78406 -0.3622,-1.67053 -0.875,-2.125 l -9,-9 c -1.0844,-0.97015 -3.2232,-1.28534 -4.375,-0.125 -1.1517,1.16035 -1.0752,3.29964 0.1562,4.375 l 3.875,3.875 c -11.1875,0 -26.3749,0 -37.5624,0 l 3.875,-3.875 c 1.2313,-1.07536 1.308,-3.21465 0.1562,-4.375 -1.3423,-1.13411 -2.9326,-0.87763 -4.375,0.125 z" style="text-indent:0;text-transform:none;direction:ltr;block-progression:tb;baseline-shift:baseline;color:white;enable-background:accumulate;" fill="white" fill-opacity="1" stroke="none" marker="none" visibility="visible" display="inline" overflow="visible"></path></g></g></svg>