<svg 
   height='300px' 
   width='300px' 
   fill="white" 
   xmlns="http://www.w3.org/2000/svg" 
   xmlns:xlink="http://www.w3.org/1999/xlink" 
   version="1.1" 
   x="0px" 
   y="0px" 
   viewBox="0 0 512 512" 
   enable-background="new 0 0 512 512" 
   xml:space="preserve">
   <path 
      fill-rule="evenodd" 
      clip-rule="evenodd" 
      d="
         M256.008,415.999
         c-16.555,0-32.508-2.641-47.524-7.312  
         c-0.109,0.047-0.234,0.109-0.469,0.016
         c-1.25-0.453-2.594-0.703-4.016-0.703
         c-6.641,0-12,5.375-12,12
         V448  
         c0,17.672,14.336,32.016,32,32.016
         h63.992
         C305.664,480.016,320,465.672,320,448
         v-16.001
         c0-8.844,7.157-16,16.001-16s16,7.156,16,16  
         V448
         c0,35.344-28.648,64-64.009,64
         H224
         c-35.36,0-64.005-28.656-64.005-64
         v-33.501
         c0-22.094,17.903-39.984,40.004-39.984  
         c4.594,0,9.008,0.766,13.094,2.188
         c0.273,0.078,0.547,0.047,0.812,0.062
         c13.204,4.609,27.336,7.234,42.102,7.234  
         c70.681,0,128.001-57.297,128.001-127.997
         c0-26.266-7.945-50.665-21.531-70.993
         l0.219-0.141
         c-1.688-2.547-2.695-5.578-2.695-8.859  
         c0-8.844,7.164-16.008,16.008-16.008
         c6.852,0,12.664,4.329,14.938,10.407
         C406.735,195.15,416,224.463,416,256.002  
         C416,344.374,344.36,415.999,256.008,415.999
         L256.008,415.999
         z 
         
         M256.008,176.009
         v67.985
         c0,6.641,5.367,12.008,11.984,12.008
         H304  
         c8.844,0,16,7.168,16,15.996
         c0,8.844-7.156,16-16,16
         h-40.008
         c-22.086,0-39.992-17.906-39.992-40.004
         v-71.985  
         c0-8.844,7.156-16.008,16.008-16.008
         C248.828,160.001,256.008,167.166,256.008,176.009
         L256.008,176.009
         z 
         
         M312,137.509  
         c-4.594,0-8.992-0.773-13.094-2.211
         c-0.258-0.086-0.523-0.047-0.797-0.07
         c-13.203-4.609-27.336-7.227-42.102-7.227  
         c-70.696,0-128.017,57.313-128.017,128.001
         c0,8.84-7.156,15.996-15.984,15.996
         c-8.844,0-16.007-7.156-16.007-15.996  
         c0-88.375,71.64-160.009,160.008-160.009
         c16.578,0,32.523,2.641,47.555,7.336
         c0.109-0.031,0.219-0.086,0.414-0.016  
         c1.258,0.453,2.617,0.688,4.023,0.688
         c6.633,0,12-5.367,12-12.008
         v-28
         c0-17.672-14.336-31.985-32.008-31.985
         H224  
         c-17.665,0-32,14.313-32,31.985
         v16
         c0,8.844-7.156,16-16,16
         c-8.828,0-16.004-7.157-16.004-16
         v-16
         C159.995,28.648,188.64,0,224,0  
         h63.992
         c35.36,0,64.009,28.648,64.009,63.993
         v33.508
         C352.001,119.587,334.095,137.509,312,137.509
         L312,137.509
         z 
         
         M127.991,303.998  
         c8.844,0,16.004,7.156,16.004,16.016
         c0,8.813-7.16,16.001-16.004,16.001
         c-8.824,0-15.984-7.188-15.984-16.001  
         C112.007,311.154,119.167,303.998,127.991,303.998
         L127.991,303.998
         z
         "
         ></path>
</svg>