<?xml version="1.0" encoding="UTF-8"?>
<svg width="752pt" height="752pt" version="1.1" viewBox="0 0 752 752" xmlns="http://www.w3.org/2000/svg">
 <g>
  <path d="m512.2 354.38c-5.7344-5.7266-13.512-8.9414-21.617-8.9336-6.0469-0.011719-11.957 1.7969-16.957 5.1914-1.6484-4.3672-4.2578-8.3086-7.6406-11.531-5.6406-5.6367-13.262-8.8438-21.234-8.9375-6.043-0.011719-11.953 1.7969-16.957 5.1914-1.6484-4.3672-4.2578-8.3086-7.6367-11.531-4.7344-4.6641-10.863-7.6562-17.449-8.5273-6.5898-0.86719-13.281 0.4375-19.062 3.7148v-72.871c0.003906-8.1055-3.2109-15.883-8.9375-21.617-7.3086-7.2188-17.73-10.34-27.805-8.3242-7.0078 1.6094-13.25 5.5742-17.684 11.23-4.4375 5.6602-6.793 12.668-6.6836 19.855v177.14l-20.93-23.906v-0.003907c-6.4727-7.3633-15.535-11.957-25.305-12.824-9.7695-0.86719-19.496 2.0547-27.168 8.1641l-5.2695 4.2773-0.003906 0.003906c-4.3359 3.375-7.2812 8.2344-8.2656 13.645-0.98828 5.4102 0.050781 10.992 2.9219 15.684l54.461 87.844c21.277 38.922 61.605 63.633 105.95 64.926 32.41 0 63.496-12.875 86.418-35.797 22.918-22.918 35.797-54.004 35.797-86.418v-84.023c0.003907-8.1055-3.2109-15.879-8.9375-21.617zm-6.3398 105.64c0 28.363-11.27 55.562-31.324 75.617s-47.254 31.32-75.613 31.32c-36.207 0-72.641-22.457-92.805-57.441l-54.312-88.223c-1.8203-3.1328-0.95703-7.1328 1.9844-9.2422l5.1953-4.2773c4.0547-3.25 9.0898-5.0273 14.285-5.043 6.5586-0.027344 12.812 2.75 17.188 7.6406l47.355 54.691v-217.77c-0.20312-3.7109 0.89062-7.3789 3.0938-10.371 2.1992-2.9961 5.3711-5.1367 8.9766-6.0508 5.0703-1.0586 10.332 0.52344 13.977 4.2031 2.9453 2.9258 4.5742 6.9219 4.5078 11.074v152.77c0 4.2188 3.418 7.6367 7.6367 7.6367s7.6406-3.418 7.6406-7.6367v-53.469c0-4.0547 1.6094-7.9375 4.4727-10.805 2.8672-2.8633 6.75-4.4727 10.805-4.4727 4.0508 0 7.9375 1.6094 10.801 4.4727 2.8633 2.8672 4.4766 6.75 4.4766 10.805v53.469c0 4.2188 3.418 7.6367 7.6367 7.6367s7.6367-3.418 7.6367-7.6367v-38.195c0-4.0508 1.6094-7.9336 4.4766-10.801 2.8633-2.8633 6.75-4.4727 10.801-4.4727 4.0508 0 7.9375 1.6094 10.805 4.4727 2.8633 2.8672 4.4727 6.75 4.4727 10.801v38.195c0 4.2188 3.4219 7.6367 7.6406 7.6367 4.2148 0 7.6367-3.418 7.6367-7.6367v-22.918c0-4.0508 1.6094-7.9375 4.4727-10.801 2.8672-2.8633 6.7539-4.4766 10.805-4.4766s7.9375 1.6133 10.801 4.4766c2.8672 2.8633 4.4766 6.75 4.4766 10.801z"/>
  <path d="m307.25 275.55c1.7266-1.0703 2.9531-2.7852 3.4141-4.7617 0.45703-1.9766 0.10938-4.0547-0.96875-5.7773-8.7148-13.969-10.359-31.219-4.4375-46.578 5.918-15.363 18.711-27.051 34.547-31.559 15.832-4.5078 32.863-1.3125 45.988 8.6289 13.121 9.9414 20.809 25.469 20.758 41.934 0.10156 9.7266-2.5469 19.285-7.6367 27.574-1.0781 1.7227-1.4258 3.8008-0.96875 5.7773 0.46094 1.9766 1.6875 3.6914 3.4102 4.7617 1.2188 0.75391 2.6211 1.1523 4.0508 1.1484 2.6367 0.003906 5.0938-1.3516 6.4922-3.5898 8.4688-13.719 11.758-30.012 9.2734-45.941s-10.582-30.445-22.828-40.93c-12.25-10.484-27.84-16.246-43.965-16.246-16.121 0-31.711 5.7617-43.961 16.246-12.246 10.484-20.344 25-22.828 40.93s0.80469 32.223 9.2734 45.941c2.2266 3.5 6.8359 4.582 10.387 2.4414z"/>
 </g>
</svg>
