<svg height='300px' width='300px'  fill="#000000" xmlns="http://www.w3.org/2000/svg" xmlns:xlink="http://www.w3.org/1999/xlink" version="1.1" x="0px" y="0px" viewBox="0 0 100 100" enable-background="new 0 0 100 100" xml:space="preserve"><path fill="#000000" d="M70,28.5H30c-2.2,0-4-1.8-4-4s1.8-4,4-4H70c2.2,0,4,1.8,4,4S72.2,28.5,70,28.5z"></path><path fill="#000000" d="M71,54.9L52.8,36.7l0,0l0,0c0,0,0,0,0,0c-0.2-0.2-0.4-0.3-0.6-0.5c-0.1-0.1-0.2-0.1-0.3-0.2  c-0.1-0.1-0.3-0.1-0.4-0.2c-0.1-0.1-0.3-0.1-0.4-0.1c-0.1,0-0.2-0.1-0.4-0.1c-0.2,0-0.5-0.1-0.7-0.1c0,0,0,0-0.1,0c0,0,0,0,0,0  c-0.2,0-0.5,0-0.7,0.1c-0.1,0-0.2,0.1-0.3,0.1c-0.1,0-0.3,0.1-0.4,0.1c-0.1,0.1-0.3,0.1-0.4,0.2c-0.1,0.1-0.2,0.1-0.3,0.2  c-0.2,0.1-0.4,0.3-0.6,0.5c0,0,0,0-0.1,0L29,54.9c-1.6,1.6-1.6,4.1,0,5.7c0.8,0.8,1.8,1.2,2.8,1.2c1,0,2-0.4,2.8-1.2L46,49.2v29.3  c0,2.2,1.8,4,4,4s4-1.8,4-4V49.2l11.4,11.4c0.8,0.8,1.8,1.2,2.8,1.2s2-0.4,2.8-1.2C72.6,59,72.6,56.5,71,54.9z"></path></svg>