<svg height='300px' width='300px'  fill="white" xmlns:dc="http://purl.org/dc/elements/1.1/" xmlns:cc="http://creativecommons.org/ns#" xmlns:rdf="http://www.w3.org/1999/02/22-rdf-syntax-ns#" xmlns:svg="http://www.w3.org/2000/svg" xmlns="http://www.w3.org/2000/svg" xmlns:sodipodi="http://sodipodi.sourceforge.net/DTD/sodipodi-0.dtd" xmlns:inkscape="http://www.inkscape.org/namespaces/inkscape" version="1.1" x="0px" y="0px" viewBox="0 0 100 100"><g transform="translate(0,-952.36218)"><path style="text-indent:0;text-transform:none;direction:ltr;block-progression:tb;baseline-shift:baseline;color:white;enable-background:accumulate;" d="m 60.560686,967.19019 a 3.0003,3.0003 0 0 0 -2.09375,0.90625 L 8.9669356,1017.5964 a 3.0003,3.0003 0 0 0 -0.84375,1.6563 l -2.09375,14.875 a 3.0003,3.0003 0 0 0 3.40625,3.375 l 14.8125004,-2.0938 a 3.0003,3.0003 0 0 0 1.71875,-0.8437 l 49.5,-49.50001 a 3.0003,3.0003 0 0 0 -0.0312,-4.25 l -12.68755,-12.71875 a 3.0003,3.0003 0 0 0 -1.59375,-0.84375 3.0003,3.0003 0 0 0 -0.59375,-0.0625 z m 0.0625,7.25 8.46875,8.5 -1.40625,1.375 -8.46875,-8.46875 1.40625,-1.40625 z m -5.65625,5.6875 8.46875,8.46875 -41.03125,40.99996 -9.875,1.4375 1.40625,-9.9062 41.03125,-41.00001 z m -20.96875,53.40621 c -1.1046,0 -2,0.8954 -2,2 0,1.1046 0.8954,2 2,2 l 58.000002,0 c 1.1046,0 2,-0.8954 2,-2 0,-1.1046 -0.8954,-2 -2,-2 l -58.000002,0 z" fill="white" fill-opacity="1" stroke="none" marker="none" visibility="visible" display="inline" overflow="visible"></path></g></svg>